<?xml version="1.0" encoding="UTF-8"?>
<svg width="395px" height="102px" viewBox="0 0 395 102" version="1.1" xmlns="http://www.w3.org/2000/svg" xmlns:xlink="http://www.w3.org/1999/xlink">
    <!-- Generator: Sketch 49 (51002) - http://www.bohemiancoding.com/sketch -->
    <title>ArchLogoColor</title>
    <desc>Created with Sketch.</desc>
    <defs></defs>
    <g id="Page-1" stroke="none" stroke-width="1" fill="none" fill-rule="evenodd">
        <g id="ICONS" transform="translate(-1958.000000, -3080.000000)">
            <g id="ArchLogoColor" transform="translate(1954.000000, 3080.000000)">
                <path d="M143.419758,68.133545 L138.434444,53.2562257 L120.822773,53.2562257 L117.095435,64.0136719 C116.132534,66.7907854 115.651091,68.7591494 115.651091,69.9188233 C115.651091,72.1466175 117.110951,73.306274 120.030713,73.3978271 L120.030713,75 L105.913421,75 L105.913421,73.3978271 C107.55967,73.184203 108.871991,72.7340733 109.850422,72.0474243 C110.828853,71.3607754 111.613139,70.4757745 112.203304,69.392395 C112.793469,68.3090156 113.399155,66.8365571 114.020381,64.9749755 L129.116099,20.7092285 L134.753698,20.7092285 L150.594883,66.9433594 C151.402477,69.476331 152.311007,71.1852983 153.320499,72.0703124 C154.329991,72.9553268 156.015042,73.3978271 158.375701,73.3978271 L158.375701,75 L139.133319,75 L139.133319,73.3978271 C142.23945,73.3978271 143.792492,72.3449812 143.792492,70.2392578 C143.792492,69.5373499 143.668248,68.8354527 143.419758,68.133545 Z M137.223059,49.9603271 L129.6752,27.2094727 L129.488833,27.2094727 L121.84779,49.9603271 L137.223059,49.9603271 Z M173.872853,50.5096436 L173.872853,68.7286377 C173.872853,70.5597015 174.268878,71.7956511 175.060942,72.4365234 C175.853006,73.0773957 177.336161,73.3978271 179.510451,73.3978271 L179.510451,75 L161.665822,75 L161.665822,73.3978271 C163.405254,73.3978271 164.670983,73.2223529 165.463047,72.8713989 C166.255111,72.520445 166.77538,71.9329875 167.023869,71.1090088 C167.27236,70.28503 167.396604,68.9270114 167.396604,67.0349121 L167.396604,48.9532471 C167.396604,47.2747719 167.210239,46.0617103 166.837503,45.3140259 C166.464768,44.5663416 165.820255,44.0780652 164.903946,43.8491821 C163.987638,43.6202992 162.488953,43.5058593 160.407845,43.5058593 L160.407845,41.9036865 L172.242143,40.8966064 L173.872853,40.8966064 L173.872853,48.0834962 C175.891837,46.3439854 177.63901,44.9401908 179.114422,43.8720703 C180.589834,42.8039497 181.808972,42.0410179 182.771873,41.5832519 C183.734773,41.125486 184.620006,40.8966064 185.4276,40.8966064 C186.3905,40.8966064 187.462099,41.1407447 188.642429,41.6290283 C189.822759,42.117312 190.816706,42.7429161 191.6243,43.5058593 L189.061755,49.4110107 C185.458644,47.457876 182.787412,46.4813232 181.047978,46.4813232 C179.991893,46.4813232 178.912529,46.786496 177.809853,47.3968506 C176.707178,48.0072053 175.394857,49.0447924 173.872853,50.5096436 Z M221.962145,40.8966064 L221.962145,52.6153565 L220.331434,52.6153565 C219.617025,49.5635834 218.250347,47.1527187 216.231363,45.3826904 C214.212379,43.6126621 211.805163,42.7276612 209.009646,42.7276612 C206.835355,42.7276612 204.870757,43.3151187 203.115793,44.4900513 C201.36083,45.6649839 200.009683,47.2900287 199.062314,49.3652344 C198.114943,51.44044 197.641265,53.8360459 197.641265,56.5521241 C197.641265,59.4818261 198.215892,62.2283807 199.36516,64.7918701 C200.514429,67.3553596 202.059705,69.4000168 204.001036,70.9259034 C205.942368,72.4517899 208.046739,73.2147217 210.314215,73.2147217 C212.457444,73.2147217 214.678295,72.6272642 216.97683,71.4523316 C219.275367,70.2773988 221.263261,68.5608023 222.940572,66.3024902 L222.940572,68.7286377 C219.275337,73.6114746 214.305603,76.0528564 208.031221,76.0528564 C203.092473,76.0528564 199.031269,74.4888462 195.847485,71.3607788 C192.6637,68.2327115 191.071833,64.1968021 191.071833,59.2529297 C191.071833,55.9570148 191.85612,52.8900288 193.424716,50.0518799 C194.993312,47.213731 197.113213,44.9783408 199.784486,43.3456421 C202.455758,41.7129435 205.359946,40.8966064 208.497138,40.8966064 C210.485061,40.8966064 212.504016,41.2017791 214.554061,41.8121337 C216.604107,42.4224883 217.768889,42.7276612 218.04844,42.7276612 C219.01134,42.7276612 219.772331,42.1173157 220.331434,40.8966064 L221.962145,40.8966064 Z M260.366622,52.3864747 L260.366622,67.0349121 C260.366622,68.8354581 260.506395,70.1705889 260.785946,71.0403442 C261.065498,71.9100996 261.585767,72.520445 262.34677,72.8713989 C263.107771,73.2223529 264.264787,73.3978271 265.817852,73.3978271 L265.817852,75 L248.252773,75 L248.252773,73.3978271 C249.86796,73.3978271 251.056038,73.2528702 251.817041,72.9629517 C252.578041,72.6730332 253.113841,72.1466102 253.424454,71.3836669 C253.735068,70.6207237 253.890371,69.5068432 253.890371,68.0419922 L253.890371,51.6540527 C253.890371,49.4262584 253.284685,47.6638858 252.073294,46.3668824 C250.861903,45.0698787 249.200148,44.4213866 247.087981,44.4213866 C245.19324,44.4213866 243.484894,44.909663 241.962891,45.8862305 C240.440886,46.8627979 238.872314,48.4802134 237.257127,50.7385254 L237.257127,68.9117431 C237.257127,70.6207361 237.676448,71.7956511 238.515103,72.4365234 C239.353758,73.0773957 240.813618,73.3978271 242.894725,73.3978271 L242.894725,75 L224.770545,75 L224.770545,73.3978271 C226.634223,73.3367916 227.954309,73.1536881 228.730841,72.8485108 C229.507374,72.5433335 230.043173,71.9635052 230.338257,71.1090088 C230.633339,70.2545123 230.780876,68.8964937 230.780876,67.0349121 L230.780876,23.8220214 C230.780876,21.7468158 230.384851,20.3964265 229.592789,19.770813 C228.800725,19.1451995 227.193327,18.8323974 224.770545,18.8323974 L224.770545,17.2302246 L235.673009,16.1315918 L237.257127,16.1315918 L237.257127,47.5341796 C239.431418,45.0927612 241.396016,43.3761646 243.15098,42.3843384 C244.905943,41.3925121 246.886072,40.8966064 249.091425,40.8966064 C251.017225,40.8966064 252.849815,41.3238483 254.589248,42.1783446 C256.32868,43.0328412 257.726418,44.3145667 258.782502,46.0235596 C259.838586,47.7325526 260.366622,49.8535029 260.366622,52.3864747 Z" id="Arch" fill="#0057B8" fill-rule="nonzero"></path>
                <polygon id="Combined-Shape" fill="#0057B8" fill-rule="nonzero" points="39.1990739 4.85378019 38.9602564 4.57153845 40.543494 45.7571492 46.1952571 21.7483452 55.4458395 24.0408165 39.1954269 4.73209266"></polygon>
                <polygon id="Combined-Shape" fill="#0057B8" fill-rule="nonzero" transform="translate(70.585975, 33.385201) rotate(51.000000) translate(-70.585975, -33.385201) " points="62.5820008 13.0746372 62.3431832 12.7923954 63.9264208 53.9780062 69.5781839 29.9692022 78.8287663 32.2616734 62.5783536 12.9529496"></polygon>
                <polygon id="Combined-Shape" fill="#0057B8" fill-rule="nonzero" transform="translate(76.957006, 54.684527) rotate(101.000000) translate(-76.957006, -54.684527) " points="68.9530319 34.3739634 68.7142146 34.0917217 70.297452 75.2773324 75.9492152 51.2685284 85.1997975 53.5609998 68.9493849 34.2522759"></polygon>
                <polygon id="Combined-Shape" fill="#0057B8" fill-rule="nonzero" transform="translate(64.141171, 76.621351) rotate(154.000000) translate(-64.141171, -76.621351) " points="56.1371972 56.3107878 55.8983797 56.028546 57.4816173 97.2141569 63.1333803 73.2053529 72.3839628 75.4978241 56.13355 56.1891002"></polygon>
                <polygon id="Combined-Shape" fill="#0057B8" fill-rule="nonzero" transform="translate(40.674429, 79.162907) rotate(-155.000000) translate(-40.674429, -79.162907) " points="32.6704548 58.8523434 32.4316373 58.5701016 34.0148749 99.7557123 39.6666379 75.7469085 48.9172204 78.0393797 32.6668076 58.7306559"></polygon>
                <polygon id="Combined-Shape" fill="#0057B8" fill-rule="nonzero" transform="translate(22.450544, 61.755481) rotate(-104.000000) translate(-22.450544, -61.755481) " points="14.44657 41.4449177 14.2077524 41.1626759 15.79099 82.3482867 21.4427532 58.3394828 30.6933355 60.6319541 14.4429229 41.3232303"></polygon>
                <polygon id="Combined-Shape" fill="#0057B8" fill-rule="nonzero" transform="translate(26.939781, 38.026266) rotate(-52.000000) translate(-26.939781, -38.026266) " points="18.9358068 17.7157028 18.6969893 17.433461 20.2802269 58.6190718 25.9319901 34.6102678 35.1825724 36.902739 18.9321598 17.5940152"></polygon>
                <path d="M292.716285,0.75 L292.716285,92.2499999" id="Line" stroke="#333F48" stroke-width="1.25" stroke-linecap="square"></path>
                <path d="M375.754413,29.8571777 L375.754413,31.203003 C373.9541,31.2286378 372.649544,31.811823 371.840709,32.9525757 C371.031873,34.0933285 370.62746,35.8557009 370.62746,38.2397461 L372.936545,66.0406494 C373.093095,67.8863617 373.347484,69.3347115 373.699718,70.3857421 C374.051954,71.4367729 374.606389,72.2122168 375.363042,72.7120972 C376.119696,73.2119776 377.215522,73.5260003 378.650555,73.6541748 L378.650555,75 L362.13472,75 L362.13472,73.6541748 C363.85676,73.372191 365.076518,72.7505541 365.794035,71.7892455 C366.511551,70.8279371 366.870303,69.1937371 366.870303,66.8865967 L364.600355,37.7398682 L364.443807,37.7398682 L348.74985,75 L347.536602,75 L332.155743,37.7398682 L331.999195,37.7398682 L329.41615,65.5407714 C329.41615,68.0273561 329.879267,69.905084 330.805516,71.1740112 C331.731763,72.4429385 333.25157,73.2696514 335.364982,73.6541748 L335.364982,75 L321.079959,75 L321.079959,73.6541748 C322.541082,73.4747305 323.676046,73.0517611 324.484881,72.3852539 C325.293718,71.7187467 325.8612,70.8407648 326.187343,69.7512817 C326.513487,68.6617987 326.767876,67.2070404 326.950516,65.3869629 L329.729246,34.3560791 C328.92041,33.4588578 328.033312,32.7539088 327.067927,32.2412109 C326.102542,31.728513 324.99367,31.3824473 323.741278,31.203003 L323.741278,29.8571777 L335.364982,29.8571777 L350.041374,65.3869629 L364.913452,29.8571777 L375.754413,29.8571777 Z M393.703289,38.3935546 L393.703289,66.5020752 C393.703289,68.3477875 393.866359,69.7833201 394.192502,70.8087159 C394.518645,71.8341115 395.066559,72.5646951 395.836258,73.0004882 C396.605957,73.4362815 397.630033,73.6541748 398.908516,73.6541748 L398.908516,75 L382.392682,75 L382.392682,73.6541748 C384.349544,73.6541748 385.706282,73.1607105 386.462935,72.1737671 C387.219589,71.1868237 387.597909,69.2962787 387.597909,66.5020752 L387.597909,38.3935546 C387.597909,35.5737163 387.232634,33.6703541 386.502072,32.6834107 C385.771511,31.6964672 384.401727,31.203003 382.392682,31.203003 L382.392682,29.8571777 L398.908516,29.8571777 L398.908516,31.203003 C397.603941,31.203003 396.573343,31.4273049 395.81669,31.8759155 C395.060037,32.3245261 394.518645,33.0615183 394.192502,34.086914 C393.866359,35.1123098 393.703289,36.5478423 393.703289,38.3935546 Z" id="MI" fill="#333F48" fill-rule="nonzero"></path>
            </g>
        </g>
    </g>
</svg>