<?xml version="1.0" encoding="UTF-8"?>
<svg width="92px" height="74px" viewBox="0 0 92 74" version="1.1" xmlns="http://www.w3.org/2000/svg" xmlns:xlink="http://www.w3.org/1999/xlink">
    <!-- Generator: Sketch 49 (51002) - http://www.bohemiancoding.com/sketch -->
    <title>gso-jug-logo</title>
    <desc>Created with Sketch.</desc>
    <defs></defs>
    <g id="Page-1" stroke="none" stroke-width="1" fill="none" fill-rule="evenodd">
        <g id="GSO-JUG" transform="translate(-3243.000000, -1323.000000)" fill-rule="nonzero">
            <g id="gso-jug-logo" transform="translate(3289.999926, 1359.171499) rotate(-285.000000) translate(-3289.999926, -1359.171499) translate(3235.999926, 1301.171499)">
                <path d="M99.9035891,63.9080092 C101.588852,56.7372034 100.030605,49.540376 95.6294268,44.1619959 C92.2456084,40.0289245 87.3920696,37.2745092 81.9590922,36.4057569 C76.2304237,35.4889422 70.5192792,36.4090088 65.8776596,38.9968317 C64.5755176,39.7203096 63.4083243,40.5507552 62.3825938,41.466844 C64.6753756,40.7177089 67.3185325,40.558343 70.1557088,41.0122321 C81.9804913,42.9036827 89.6112677,52.9113015 87.1656915,63.3218597 C85.9861824,68.3421108 82.2739889,72.8134321 76.7143289,75.9107975 C69.6546709,79.8440285 60.252302,81.2450866 50.9186998,79.7515105 C43.3772719,78.5452343 33.210645,74.1975049 25.5554002,66.2009475 C25.5554002,66.2009475 48.9865453,101.804159 81.740488,85.0254553 C92.6799885,79.4215304 98.4517181,70.0872 99.9035891,63.9080092 Z" id="Shape" fill="#FDB32E" transform="translate(63.061455, 62.789891) scale(-1, 1) rotate(50.000000) translate(-63.061455, -62.789891) "></path>
                <path d="M58.026162,74.7360824 C61.6208063,75.1875766 65.1329461,75.4275278 68.5143859,75.0051738 C73.3710157,74.3985633 77.9127484,72.6850897 81.6591179,70.4633494 C86.5419094,67.5668583 89.4521792,63.1086126 90.301169,58.6707632 C91.1952019,53.9916003 89.8643949,49.3945345 86.5526401,45.7268297 C85.6248384,44.6979535 84.5738299,43.7817403 83.4242155,42.9845832 C84.4195429,44.8166574 84.7132617,46.9536642 84.2695856,49.2708558 C82.4227,58.9298501 70.57702,65.4883511 57.8627306,63.8912005 C51.7307411,63.121405 46.1696383,60.2768068 42.2045631,55.8840924 C37.1683071,50.3050622 35.1149567,42.7326062 36.5728658,35.1093299 C37.7510327,28.9485144 42.6382083,20.5433622 52.0446845,14.0395874 C52.0446845,14.0395874 11.2418311,33.3258026 31.3419294,60.2977753 C37.9378593,69.148739 50.4787963,73.7882373 58.026162,74.7360824 Z" id="Shape" fill="#00AAE8" transform="translate(58.174259, 44.632227) scale(-1, 1) rotate(50.000000) translate(-58.174259, -44.632227) "></path>
                <path d="M71.5947284,56.1119499 C65.7870528,46.8948203 53.5567806,42.2719286 46.0957954,41.0698676 C37.4378129,39.6741131 28.74765,40.9650406 22.2539865,44.6096727 C17.2634679,47.4120633 13.93766,51.4313859 12.8882523,55.9313156 C11.78125,60.676083 12.8921788,65.4056151 16.0168352,69.2497435 C16.8903957,70.3284781 17.893114,71.2951324 18.9992456,72.144263 C18.0942692,70.2454144 17.9023298,68.0563865 18.4503225,65.7066744 C20.734147,55.9135416 32.8182968,49.5938361 45.3875572,51.6192751 C51.4497336,52.5964483 56.8486127,55.6708816 60.5884524,60.275274 C65.3381106,66.1216274 67.0289402,73.9085426 65.2264079,81.6385157 C63.7694004,87.8838614 58.5197517,96.3037251 48.8639003,102.644109 C48.8639004,102.644109 89.6066076,84.6973462 71.5947284,56.1119499 Z" id="Shape" fill="#ADDB25" transform="translate(44.330613, 71.582083) scale(-1, 1) rotate(50.000000) translate(-44.330613, -71.582083) "></path>
            </g>
        </g>
    </g>
</svg>