<?xml version="1.0" encoding="UTF-8"?>
<svg width="269px" height="76px" viewBox="0 0 269 76" version="1.1" xmlns="http://www.w3.org/2000/svg" xmlns:xlink="http://www.w3.org/1999/xlink">
    <!-- Generator: Sketch 49 (51002) - http://www.bohemiancoding.com/sketch -->
    <title>gso-jug-mobile-banner</title>
    <desc>Created with Sketch.</desc>
    <defs></defs>
    <g id="Page-1" stroke="none" stroke-width="1" fill="none" fill-rule="evenodd">
        <g id="GSO-JUG" transform="translate(-3170.000000, -1381.000000)">
            <g id="gso-jug-mobile-banner" transform="translate(3170.000000, 1357.000000)">
                <g id="Group" transform="translate(0.000000, 82.000000)" fill="#FFFFFF">
                    <path d="M12,4.22844367 L8.45930233,4.22844367 C8.38953488,2.88383397 7.25581395,2.9015262 6.20930233,2.9015262 C3.69767442,2.9015262 3.62790698,3.67998445 3.59302326,5.82074463 L3.59302326,7.97919704 C3.59302326,10.332264 4.39534884,10.5799553 6.20930233,10.5799553 C7.98837209,10.5799553 8.45930233,10.1730339 8.45930233,8.3330417 L6.05232558,8.3330417 L6.05232558,5.87382133 L12,5.87382133 L12,8.19150384 C12,12.6676388 10.8837209,13.4814815 6.20930233,13.4814815 C2.09302326,13.4814815 0,12.7737922 0,8.47457957 L0,5.04228638 C0,0.654612618 2.37209302,0 6.20930233,0 C9.59302326,0 12,0.0176922329 12,4.22844367 Z M18.3337156,8.2787194 L18.3337156,7.83929692 C18.3337156,7.18895166 18.3681193,6.46829881 17.559633,6.46829881 C16.6651376,6.46829881 16.4587156,7.18895166 16.4587156,7.94475832 L16.4587156,13.4814815 L13.5,13.4814815 L13.5,4.25360954 L16.3727064,4.25360954 L16.3727064,5.60703076 L16.4931193,5.60703076 C16.6995413,5.07972379 16.9919725,4.71060891 17.3704128,4.48210923 C17.7488532,4.25360954 18.2133028,4.14814815 18.7637615,4.14814815 C20.8279817,4.14814815 21,5.87068424 21,7.55806654 L21,8.2787194 L18.3337156,8.2787194 Z M25.5,7.77777778 L28.5,7.77777778 C28.5,6.31593039 27.9852071,6.22222222 26.9556213,6.22222222 C25.8727811,6.22222222 25.535503,6.48460509 25.5,7.77777778 Z M28.5350877,10.6793572 L31.5,10.6793572 C31.5,12.1286985 31.0438596,12.9542727 30.254386,13.4312711 C29.4649123,13.8899234 28.3421053,14 27.0087719,14 C23.377193,14 22.5,12.6790813 22.5,9.08324712 C22.5,5.37733637 23.3070175,4.14814815 27.0087719,4.14814815 C30.4649123,4.14814815 31.5,5.15718325 31.5,9.08324712 L31.5,9.61528381 L25.5175439,9.61528381 C25.5175439,11.3031244 25.7631579,11.7984689 27.0087719,11.7984689 C27.9385965,11.7984689 28.5350877,11.6883923 28.5350877,10.6793572 Z M35.5,7.77777778 L38.5,7.77777778 C38.5,6.31593039 37.9852071,6.22222222 36.9556213,6.22222222 C35.8727811,6.22222222 35.535503,6.48460509 35.5,7.77777778 Z M38.5350877,10.6793572 L41.5,10.6793572 C41.5,12.1286985 41.0438596,12.9542727 40.254386,13.4312711 C39.4649123,13.8899234 38.3421053,14 37.0087719,14 C33.377193,14 32.5,12.6790813 32.5,9.08324712 C32.5,5.37733637 33.3070175,4.14814815 37.0087719,4.14814815 C40.4649123,4.14814815 41.5,5.15718325 41.5,9.08324712 L41.5,9.61528381 L35.5175439,9.61528381 C35.5175439,11.3031244 35.7631579,11.7984689 37.0087719,11.7984689 C37.9385965,11.7984689 38.5350877,11.6883923 38.5350877,10.6793572 Z M43,4.25360954 L46.0653465,4.25360954 L46.0653465,5.97614564 L46.190099,5.97614564 C46.4217822,5.23791588 46.760396,4.78091651 47.2237624,4.51726303 C47.6871287,4.23603264 48.2752475,4.14814815 48.9881188,4.14814815 C51.0554455,4.14814815 52,5.11487759 52,7.10106717 L52,13.4814815 L48.9346535,13.4814815 L48.9346535,7.80414313 C48.9168317,6.90772128 48.6673267,6.46829881 47.6693069,6.46829881 C46.2970297,6.46829881 46.0653465,7.27683616 46.0653465,8.40175769 L46.0653465,13.4814815 L43,13.4814815 L43,4.25360954 Z M62.0622568,6.99177469 L59.2256809,6.99177469 C59.1731518,6.58816318 58.9805447,6.38635742 58.7529183,6.27628156 C58.5252918,6.18455167 58.2451362,6.18455167 58,6.18455167 C56.4241245,6.18455167 56.4241245,6.38635742 56.4241245,6.95508273 C56.4241245,7.43207815 56.459144,7.76230575 58,7.79899771 C61.1167315,7.87238162 62.5,8.05584139 62.5,10.7527001 C62.5,13.5779807 60.4163424,13.9999382 58,13.9999382 C55.618677,13.9999382 53.5,14.0549761 53.5,10.881122 L56.5116732,10.881122 C56.5116732,11.9635346 57.2645914,11.9635346 58,11.9635346 C59.3657588,11.9635346 59.5758755,11.8718048 59.5758755,11.1196197 C59.5758755,10.1656288 59.0505837,10.1656288 58,10.1656288 C54.1828794,10.1656288 53.5,9.26667592 53.5,7.30365631 C53.5,4.20318608 55.4435798,4.14814815 58,4.14814815 C59.6809339,4.14814815 62.0622568,4.16649413 62.0622568,6.53312525 L62.0622568,6.99177469 Z M64,0 L66.9485714,0 L66.9485714,5.34979424 L67.0857143,5.34979424 C67.5657143,4.13717421 68.5085714,3.90534979 69.5885714,3.90534979 C72.0571429,3.90534979 73,5.04663923 73,7.89986283 L73,10.0397805 C73,12.5185185 71.7657143,13.4814815 69.5885714,13.4814815 C68.3028571,13.4814815 67.36,13.1604938 67.0171429,11.7517147 L66.88,11.7517147 L66.9485714,13.3744856 L64,13.3744856 L64,0 Z M68.5745856,10.8888889 C69.7845304,10.8888889 70,10.4444444 70,8.54700855 C70,7.04273504 69.9005525,6.22222222 68.5745856,6.22222222 C67.3977901,6.22222222 67,6.51282051 67,8.54700855 C67,10.2905983 67.0662983,10.8888889 68.5745856,10.8888889 Z M78.4914286,4.14814815 C82.2628571,4.14814815 83,5.01041451 83,9.08324712 C83,13.0460032 82.2285714,14 78.4914286,14 C74.8057143,14 74,12.9359266 74,9.08324712 C74,5.13883716 74.7371429,4.14814815 78.4914286,4.14814815 Z M78.5414365,6.22222222 C77.1657459,6.22222222 77,6.61538462 77,8.56410256 C77,10.5128205 77.1657459,10.8888889 78.5414365,10.8888889 C79.8674033,10.8888889 80,10.5128205 80,8.56410256 C80,6.61538462 79.8674033,6.22222222 78.5414365,6.22222222 Z M89.8337156,8.2787194 L89.8337156,7.83929692 C89.8337156,7.18895166 89.8681193,6.46829881 89.059633,6.46829881 C88.1651376,6.46829881 87.9587156,7.18895166 87.9587156,7.94475832 L87.9587156,13.4814815 L85,13.4814815 L85,4.25360954 L87.8727064,4.25360954 L87.8727064,5.60703076 L87.9931193,5.60703076 C88.1995413,5.07972379 88.4919725,4.71060891 88.8704128,4.48210923 C89.2488532,4.25360954 89.7133028,4.14814815 90.2637615,4.14814815 C92.3279817,4.14814815 92.5,5.87068424 92.5,7.55806654 L92.5,8.2787194 L89.8337156,8.2787194 Z M97.9914286,4.14814815 C101.762857,4.14814815 102.5,5.01041451 102.5,9.08324712 C102.5,13.0460032 101.728571,14 97.9914286,14 C94.3057143,14 93.5,12.9359266 93.5,9.08324712 C93.5,5.13883716 94.2371429,4.14814815 97.9914286,4.14814815 Z M98.0414365,6.22222222 C96.6657459,6.22222222 96.5,6.61538462 96.5,8.56410256 C96.5,10.5128205 96.6657459,10.8888889 98.0414365,10.8888889 C99.3674033,10.8888889 99.5,10.5128205 99.5,8.56410256 C99.5,6.61538462 99.3674033,6.22222222 98.0414365,6.22222222 Z M115.545106,0 L119,0 L119,9.25514403 C119,12.8395062 117.963532,13.4814815 114.335893,13.4814815 C110.742802,13.4814815 110,12.6076818 110,8.88065844 L110,7.77503429 L113.28215,7.77503429 L113.28215,8.88065844 C113.28215,9.98628258 113.403071,10.3786008 114.335893,10.3786008 C115.40691,10.3786008 115.545106,10.0932785 115.545106,9.25514403 L115.545106,0 Z M125.331361,9.85185185 C124.585799,9.85185185 124,9.98148148 124,10.8703704 C124,11.9259259 124.869822,11.9259259 125.331361,11.9259259 C126.609467,11.9259259 127,11.7592593 127,10.7407407 C127,9.92592593 126.325444,9.85185185 125.331361,9.85185185 Z M126.982456,13.8899235 L127.087719,12.4589284 L126.982456,12.4589284 C126.754386,13.7798469 125.385965,14 124.333333,14 C122.22807,14 121,13.4679634 121,11.0095873 C121,8.6979799 122.157895,7.98248238 124.333333,7.98248238 C125.192982,7.98248238 126.508772,7.96413629 126.842105,9.06490171 L126.982456,9.06490171 L126.982456,7.54217621 C126.982456,6.64321779 126.929825,6.07448899 125.614035,6.07448899 C124.859649,6.07448899 124.385965,6.25794989 124.385965,7.12021614 L121.368421,7.12021614 C121.368421,4.12980342 123.45614,4.14814951 125.614035,4.14814951 C128.701754,4.14814951 130,4.55176349 130,7.87240584 L130,13.8899235 L126.982456,13.8899235 Z M140,4.14814815 L137.747243,13.4814815 L133.032169,13.4814815 L130.5,4.14814815 L133.643382,4.14814815 L135.30239,11.437037 L135.389706,11.437037 L136.891544,4.14814815 L140,4.14814815 Z M145.331361,9.85185185 C144.585799,9.85185185 144,9.98148148 144,10.8703704 C144,11.9259259 144.869822,11.9259259 145.331361,11.9259259 C146.609467,11.9259259 147,11.7592593 147,10.7407407 C147,9.92592593 146.325444,9.85185185 145.331361,9.85185185 Z M146.982456,13.8899235 L147.087719,12.4589284 L146.982456,12.4589284 C146.754386,13.7798469 145.385965,14 144.333333,14 C142.22807,14 141,13.4679634 141,11.0095873 C141,8.6979799 142.157895,7.98248238 144.333333,7.98248238 C145.192982,7.98248238 146.508772,7.96413629 146.842105,9.06490171 L146.982456,9.06490171 L146.982456,7.54217621 C146.982456,6.64321779 146.929825,6.07448899 145.614035,6.07448899 C144.859649,6.07448899 144.385965,6.25794989 144.385965,7.12021614 L141.368421,7.12021614 C141.368421,4.12980342 143.45614,4.14814951 145.614035,4.14814951 C148.701754,4.14814951 150,4.55176349 150,7.87240584 L150,13.8899235 L146.982456,13.8899235 Z" id="Greensboro-Java-User"></path>
                    <path d="M164.975232,1 L168.55157,1 L168.55157,9.5978836 C168.55157,13.037037 166.870691,14 162.93672,14 C157.572214,14 157,12.6931217 157,9.5978836 L157,1 L160.576337,1 L160.576337,9.52910053 C160.576337,10.9907407 161.434658,11.0079365 162.93672,11.0079365 C164.456663,11.0079365 164.975232,10.8875661 164.975232,9.37433862 L164.975232,1 Z M178.658949,7.74206845 L175.809653,7.74206845 C175.756888,7.35287164 175.563417,7.15827323 175.33477,7.05212865 C175.106123,6.96367483 174.824711,6.96367483 174.578475,6.96367483 C172.995533,6.96367483 172.995533,7.15827323 172.995533,7.70668692 C172.995533,8.16664679 173.03071,8.48508055 174.578475,8.52046207 C177.709183,8.59122513 179.098655,8.76813277 179.098655,11.3686751 C179.098655,14.0930528 177.005653,14.4999404 174.578475,14.4999404 C172.186474,14.4999404 170.058296,14.5530127 170.058296,11.4925105 L173.083474,11.4925105 C173.083474,12.5362655 173.839769,12.5362655 174.578475,12.5362655 C175.950359,12.5362655 176.161418,12.4478117 176.161418,11.7224904 C176.161418,10.8025707 175.63377,10.8025707 174.578475,10.8025707 C170.744238,10.8025707 170.058296,9.93572321 170.058296,8.04281144 C170.058296,5.05307229 172.010591,5 174.578475,5 C176.266947,5 178.658949,5.01769076 178.658949,7.29979934 L178.658949,7.74206845 Z M183.116592,8.5 L186.130045,8.5 C186.130045,7.09036145 185.612943,7 184.578741,7 C183.491045,7 183.152254,7.25301205 183.116592,8.5 Z M186.16529,11.2979516 L189.143498,11.2979516 C189.143498,12.6955307 188.685312,13.4916201 187.892298,13.9515829 C187.099284,14.3938547 185.971442,14.5 184.63213,14.5 C180.984266,14.5 180.103139,13.226257 180.103139,9.75884544 C180.103139,6.18528864 180.913775,5 184.63213,5 C188.103768,5 189.143498,5.97299814 189.143498,9.75884544 L189.143498,10.2718808 L183.134214,10.2718808 C183.134214,11.8994413 183.38093,12.377095 184.63213,12.377095 C185.566124,12.377095 186.16529,12.2709497 186.16529,11.2979516 Z M195.505616,8.98305085 L195.505616,8.55932203 C195.505616,7.93220339 195.540174,7.23728814 194.728062,7.23728814 C193.829555,7.23728814 193.622208,7.93220339 193.622208,8.66101695 L193.622208,14 L190.650224,14 L190.650224,5.10169492 L193.535813,5.10169492 L193.535813,6.40677966 L193.656766,6.40677966 C193.864113,5.89830508 194.157856,5.54237288 194.537993,5.3220339 C194.918131,5.10169492 195.384663,5 195.93759,5 C198.011067,5 198.183857,6.66101695 198.183857,8.28813559 L198.183857,8.98305085 L195.505616,8.98305085 Z M207.788993,7.74206845 L204.939697,7.74206845 C204.886933,7.35287164 204.693462,7.15827323 204.464815,7.05212865 C204.236168,6.96367483 203.954756,6.96367483 203.70852,6.96367483 C202.125578,6.96367483 202.125578,7.15827323 202.125578,7.70668692 C202.125578,8.16664679 202.160754,8.48508055 203.70852,8.52046207 C206.839228,8.59122513 208.2287,8.76813277 208.2287,11.3686751 C208.2287,14.0930528 206.135698,14.4999404 203.70852,14.4999404 C201.316519,14.4999404 199.188341,14.5530127 199.188341,11.4925105 L202.213519,11.4925105 C202.213519,12.5362655 202.969814,12.5362655 203.70852,12.5362655 C205.080403,12.5362655 205.291462,12.4478117 205.291462,11.7224904 C205.291462,10.8025707 204.763815,10.8025707 203.70852,10.8025707 C199.874282,10.8025707 199.188341,9.93572321 199.188341,8.04281144 C199.188341,5.05307229 201.140636,5 203.70852,5 C205.396992,5 207.788993,5.01769076 207.788993,7.29979934 L207.788993,7.74206845 Z M227.816143,5.07742782 L224.259568,5.07742782 C224.189488,3.7808399 223.050683,3.79790026 221.999479,3.79790026 C219.476588,3.79790026 219.406507,4.54855643 219.371467,6.61286089 L219.371467,8.69422572 C219.371467,10.9632546 220.177391,11.2020997 221.999479,11.2020997 C223.786526,11.2020997 224.259568,10.8097113 224.259568,9.03543307 L221.841798,9.03543307 L221.841798,6.66404199 L227.816143,6.66404199 L227.816143,8.89895013 C227.816143,13.2152231 226.694859,14 221.999479,14 C217.864741,14 215.762332,13.3175853 215.762332,9.17191601 L215.762332,5.86220472 C215.762332,1.6312336 218.145062,1 221.999479,1 C225.398373,1 227.816143,1.01706037 227.816143,5.07742782 Z M234.178261,8.98305085 L234.178261,8.55932203 C234.178261,7.93220339 234.212819,7.23728814 233.400708,7.23728814 C232.502201,7.23728814 232.294853,7.93220339 232.294853,8.66101695 L232.294853,14 L229.32287,14 L229.32287,5.10169492 L232.208458,5.10169492 L232.208458,6.40677966 L232.329411,6.40677966 C232.536759,5.89830508 232.830502,5.54237288 233.210639,5.3220339 C233.590776,5.10169492 234.057309,5 234.610236,5 C236.683713,5 236.856502,6.66101695 236.856502,8.28813559 L236.856502,8.98305085 L234.178261,8.98305085 Z M242.874798,5 C246.663139,5 247.403587,5.83147114 247.403587,9.75884544 C247.403587,13.5800745 246.6287,14.5 242.874798,14.5 C239.172556,14.5 238.363229,13.4739292 238.363229,9.75884544 C238.363229,5.95530726 239.103677,5 242.874798,5 Z M242.92503,7 C241.543171,7 241.376682,7.37912088 241.376682,9.25824176 C241.376682,11.1373626 241.543171,11.5 242.92503,11.5 C244.256943,11.5 244.390135,11.1373626 244.390135,9.25824176 C244.390135,7.37912088 244.256943,7 242.92503,7 Z M257.950673,13.8983051 L254.955157,13.8983051 L255.06278,12.1864407 L254.919283,12.1864407 C254.488789,13.559322 253.412556,14 252.103139,14 C250.237668,14 248.910314,13.2542373 248.910314,11.0847458 L248.910314,5 L251.995516,5 L251.995516,10.3050847 C251.995516,11.1186441 252.085202,11.7627119 253.125561,11.7627119 C253.950673,11.7627119 254.865471,11.3559322 254.865471,10.4745763 L254.865471,5 L257.950673,5 L257.950673,13.8983051 Z M259.959641,18 L259.959641,5.10290237 L262.921435,5.10290237 L262.852556,6.52638522 L262.990314,6.52638522 C263.334709,5.30870712 264.281794,5 265.573274,5 C267.760179,5 269,5.92612137 269,8.31002639 L269,10.3680739 C269,13.1121372 268.052915,14.2097625 265.573274,14.2097625 C264.48843,14.2097625 263.541345,13.9868074 263.059193,12.7519789 L262.921435,12.7519789 L262.921435,18 L259.959641,18 Z M264.404901,7 C263.18953,7 262.973094,7.42857143 262.973094,9.25824176 C262.973094,10.7087912 263.072988,11.5 264.404901,11.5 C265.586973,11.5 265.986547,11.2197802 265.986547,9.25824176 C265.986547,7.57692308 265.919951,7 264.404901,7 Z" id="Greensboro-Java-User"></path>
                </g>
                <g id="gso-jug-logo" transform="translate(134.500000, 50.000000) rotate(-285.000000) translate(-134.500000, -50.000000) translate(95.000000, 8.000000)" fill-rule="nonzero">
                    <path d="M73.1525922,46.2782135 C74.3697266,41.0855611 73.2443259,35.8740654 70.0656971,31.9793763 C67.6218283,28.9864626 64.1164947,26.991886 60.1926777,26.3627895 C56.055306,25.6988892 51.9305905,26.3651443 48.5783097,28.239085 C47.6378738,28.7629828 46.7949009,29.36434 46.0540955,30.0277146 C47.7099935,29.4852375 49.6189402,29.3698346 51.6680119,29.6985129 C60.2081326,31.0681841 65.7192489,38.3150804 63.9529994,45.8537605 C63.1011318,49.4891147 60.4201031,52.726968 56.4047931,54.9698879 C51.3061512,57.8180896 44.5155514,58.8326489 37.7746165,57.7510938 C32.3280297,56.8775834 24.9854658,53.7292277 19.4566779,47.9386172 C19.4566779,47.9386172 36.3791716,73.720253 60.0347969,61.5701573 C67.9355473,57.5121427 72.1040187,50.7528 73.1525922,46.2782135 Z" id="Shape" fill="#FDB32E" transform="translate(46.544384, 45.468542) scale(-1, 1) rotate(50.000000) translate(-46.544384, -45.468542) "></path>
                    <path d="M42.9077837,54.1192321 C45.5039156,54.4461761 48.0404611,54.6199339 50.482612,54.3140914 C53.990178,53.8748217 57.2703183,52.6340304 59.9760296,51.025184 C63.5024901,48.927725 65.6043516,45.6993402 66.217511,42.4857251 C66.8632014,39.0973657 65.902063,35.768456 63.51024,33.1125318 C62.8401611,32.3674835 62.0810993,31.7040188 61.2508223,31.1267671 C61.9696699,32.4534415 62.1818001,34.0009292 61.8613674,35.6788956 C60.5275056,42.6733398 51.9722922,47.4225991 42.7897499,46.2660418 C38.3610908,45.7086036 34.3447388,43.6487221 31.4810734,40.467791 C27.8437773,36.4278036 26.360802,30.9443011 27.4137364,25.4239975 C28.2646347,20.9627173 31.7942616,14.8762278 38.5878277,10.1665978 C38.5878277,10.1665978 9.11910026,24.1324777 23.6358379,43.6639063 C28.399565,50.0732248 37.4569084,53.4328615 42.9077837,54.1192321 Z" id="Shape" fill="#00AAE8" transform="translate(43.014742, 32.319888) scale(-1, 1) rotate(50.000000) translate(-43.014742, -32.319888) "></path>
                    <path d="M52.7073039,40.6327913 C48.5128715,33.9583181 39.6798971,30.6107069 34.2914078,29.7402489 C28.0384204,28.7295301 21.7621917,29.6643397 17.0723236,32.3035561 C13.4680602,34.3328734 11.0660878,37.2434174 10.3081822,40.5019871 C9.50868056,43.9378532 10.311018,47.3626868 12.5677143,50.146366 C13.1986191,50.9275186 13.9228046,51.6275096 14.7216774,52.2423973 C14.0680833,50.867369 13.9294604,49.2822109 14.3252329,47.5806952 C15.9746617,40.4891164 24.7021032,35.9127779 33.7799024,37.3794751 C38.158141,38.0870833 42.0573314,40.313397 44.7583268,43.6476122 C48.1886354,47.8811784 49.4097902,53.5199791 48.1079613,59.1175458 C47.0556781,63.6400376 43.2642651,69.7371803 36.2905947,74.3284927 C36.2905947,74.3284928 65.7158832,61.3325611 52.7073039,40.6327913 Z" id="Shape" fill="#ADDB25" transform="translate(33.016554, 51.835301) scale(-1, 1) rotate(50.000000) translate(-33.016554, -51.835301) "></path>
                </g>
            </g>
        </g>
    </g>
</svg>