<?xml version="1.0" encoding="UTF-8"?>
<svg width="558px" height="75px" viewBox="0 0 558 75" version="1.1" xmlns="http://www.w3.org/2000/svg" xmlns:xlink="http://www.w3.org/1999/xlink">
    <!-- Generator: Sketch 49 (51002) - http://www.bohemiancoding.com/sketch -->
    <title>gso-jug-banner</title>
    <desc>Created with Sketch.</desc>
    <defs></defs>
    <g id="Page-1" stroke="none" stroke-width="1" fill="none" fill-rule="evenodd">
        <g id="GSO-JUG" transform="translate(-3202.000000, -1469.000000)">
            <g id="gso-jug-banner" transform="translate(3202.000000, 1455.000000)">
                <g transform="translate(0.000000, 14.000000)">
                    <rect id="Rectangle-40" fill="#343A40" x="0" y="0" width="558" height="75"></rect>
                    <path d="M121.923933,32.4759148 L116.340273,32.4759148 C116.23025,30.4166281 114.442378,30.4437239 112.792035,30.4437239 C108.831212,30.4437239 108.721189,31.6359426 108.666178,34.9145438 L108.666178,38.2202409 C108.666178,41.8239926 109.931441,42.2033349 112.792035,42.2033349 C115.597618,42.2033349 116.340273,41.5801297 116.340273,38.7621584 L112.544484,38.7621584 L112.544484,34.9958314 L121.923933,34.9958314 L121.923933,38.5453914 C121.923933,45.4006484 120.163567,46.6470588 112.792035,46.6470588 C106.300686,46.6470588 103,45.5632237 103,38.9789254 L103,33.7223252 C103,27.0025475 106.740777,26 112.792035,26 C118.128144,26 121.923933,26.0270959 121.923933,32.4759148 Z M131.912167,38.6789631 L131.912167,38.0059821 C131.912167,37.0099701 131.966422,35.9062812 130.691444,35.9062812 C129.280829,35.9062812 128.955303,37.0099701 128.955303,38.1674975 L128.955303,46.6470588 L124.289425,46.6470588 L124.289425,32.5144566 L128.819667,32.5144566 L128.819667,34.5872383 L129.009557,34.5872383 C129.335084,33.779661 129.796246,33.2143569 130.393044,32.8644068 C130.989843,32.5144566 131.722277,32.3529412 132.590347,32.3529412 C135.845611,32.3529412 136.116883,34.9910269 136.116883,37.5752742 L136.116883,38.6789631 L131.912167,38.6789631 Z M143.213358,37.9117647 L147.944341,37.9117647 C147.944341,35.672927 147.132516,35.5294118 145.508865,35.5294118 C143.801232,35.5294118 143.269346,35.9312544 143.213358,37.9117647 Z M147.999675,42.3555702 L152.675325,42.3555702 C152.675325,44.5752547 151.955994,45.8396319 150.710998,46.570161 C149.466003,47.2725928 147.695342,47.4411765 145.592683,47.4411765 C139.865703,47.4411765 138.482375,45.4181729 138.482375,39.9111075 C138.482375,34.2354584 139.755037,32.3529412 145.592683,32.3529412 C151.042997,32.3529412 152.675325,33.8982912 152.675325,39.9111075 L152.675325,40.7259284 L143.241025,40.7259284 C143.241025,43.3108774 143.628357,44.0695038 145.592683,44.0695038 C147.059011,44.0695038 147.999675,43.9009201 147.999675,42.3555702 Z M158.983302,37.9117647 L163.714286,37.9117647 C163.714286,35.672927 162.90246,35.5294118 161.278809,35.5294118 C159.571176,35.5294118 159.03929,35.9312544 158.983302,37.9117647 Z M163.769619,42.3555702 L168.445269,42.3555702 C168.445269,44.5752547 167.725938,45.8396319 166.480943,46.570161 C165.235947,47.2725928 163.465287,47.4411765 161.362627,47.4411765 C155.635648,47.4411765 154.252319,45.4181729 154.252319,39.9111075 C154.252319,34.2354584 155.524981,32.3529412 161.362627,32.3529412 C166.812941,32.3529412 168.445269,33.8982912 168.445269,39.9111075 L168.445269,40.7259284 L159.010969,40.7259284 C159.010969,43.3108774 159.398301,44.0695038 161.362627,44.0695038 C162.828956,44.0695038 163.769619,43.9009201 163.769619,42.3555702 Z M170.810761,32.5144566 L175.644795,32.5144566 L175.644795,35.1525424 L175.841529,35.1525424 C176.206892,34.0219342 176.740884,33.3220339 177.47161,32.9182453 C178.202337,32.4875374 179.129797,32.3529412 180.253991,32.3529412 C183.514153,32.3529412 185.003711,33.8334995 185.003711,36.8753739 L185.003711,46.6470588 L180.169676,46.6470588 L180.169676,37.9521436 C180.141571,36.5792622 179.748103,35.9062812 178.174232,35.9062812 C176.010158,35.9062812 175.644795,37.1445663 175.644795,38.8673978 L175.644795,46.6470588 L170.810761,46.6470588 L170.810761,32.5144566 Z M200.871834,36.7079911 L196.398569,36.7079911 C196.315731,36.089855 196.011991,35.7807869 195.653025,35.6122043 C195.294059,35.4717188 194.852256,35.4717188 194.465677,35.4717188 C191.98053,35.4717188 191.98053,35.7807869 191.98053,36.6517969 C191.98053,37.3823214 192.035756,37.8880691 194.465677,37.9442633 C199.380745,38.0566517 201.562152,38.3376226 201.562152,42.4678958 C201.562152,46.7948486 198.276236,47.4410818 194.465677,47.4410818 C190.710344,47.4410818 187.369202,47.5253731 187.369202,42.6645754 L192.118594,42.6645754 C192.118594,44.3223041 193.305942,44.3223041 194.465677,44.3223041 C196.619471,44.3223041 196.950824,44.1818186 196.950824,43.0298377 C196.950824,41.5687887 196.122442,41.5687887 194.465677,41.5687887 C188.446099,41.5687887 187.369202,40.192031 187.369202,37.1856417 C187.369202,32.4372325 190.434217,32.3529412 194.465677,32.3529412 C197.116501,32.3529412 200.871834,32.3810383 200.871834,36.0055637 L200.871834,36.7079911 Z M203.927644,26 L208.577525,26 L208.577525,34.1932773 L208.793798,34.1932773 C209.550755,32.3361345 211.037636,31.9810924 212.74079,31.9810924 C216.633713,31.9810924 218.120594,33.7289916 218.120594,38.0987395 L218.120594,41.3760504 C218.120594,45.1722689 216.174132,46.6470588 212.74079,46.6470588 C210.713226,46.6470588 209.226345,46.1554622 208.685661,43.9978992 L208.469388,43.9978992 L208.577525,46.4831933 L203.927644,46.4831933 L203.927644,26 Z M211.14174,42.6764706 C213.049816,42.6764706 213.38961,41.9957983 213.38961,39.0898513 C213.38961,36.7860375 213.232782,35.5294118 211.14174,35.5294118 C209.28594,35.5294118 208.658627,35.9744667 208.658627,39.0898513 C208.658627,41.760181 208.763179,42.6764706 211.14174,42.6764706 Z M226.780546,32.3529412 C232.728068,32.3529412 233.890538,33.673513 233.890538,39.9111075 C233.890538,45.9801183 232.673999,47.4411765 226.780546,47.4411765 C220.968195,47.4411765 219.697588,45.8115347 219.697588,39.9111075 C219.697588,33.8701939 220.860058,32.3529412 226.780546,32.3529412 Z M226.859408,35.5294118 C224.689952,35.5294118 224.428571,36.1315449 224.428571,39.116031 C224.428571,42.1005171 224.689952,42.6764706 226.859408,42.6764706 C228.95045,42.6764706 229.159555,42.1005171 229.159555,39.116031 C229.159555,36.1315449 228.95045,35.5294118 226.859408,35.5294118 Z M244.667269,38.6789631 L244.667269,38.0059821 C244.667269,37.0099701 244.721524,35.9062812 243.446546,35.9062812 C242.035931,35.9062812 241.710405,37.0099701 241.710405,38.1674975 L241.710405,46.6470588 L237.044527,46.6470588 L237.044527,32.5144566 L241.574769,32.5144566 L241.574769,34.5872383 L241.764659,34.5872383 C242.090186,33.779661 242.551348,33.2143569 243.148146,32.8644068 C243.744945,32.5144566 244.477379,32.3529412 245.345449,32.3529412 C248.600713,32.3529412 248.871985,34.9910269 248.871985,37.5752742 L248.871985,38.6789631 L244.667269,38.6789631 Z M257.531937,32.3529412 C263.479459,32.3529412 264.641929,33.673513 264.641929,39.9111075 C264.641929,45.9801183 263.425391,47.4411765 257.531937,47.4411765 C251.719587,47.4411765 250.44898,45.8115347 250.44898,39.9111075 C250.44898,33.8701939 251.61145,32.3529412 257.531937,32.3529412 Z M257.6108,35.5294118 C255.441343,35.5294118 255.179963,36.1315449 255.179963,39.116031 C255.179963,42.1005171 255.441343,42.6764706 257.6108,42.6764706 C259.701842,42.6764706 259.910946,42.1005171 259.910946,39.116031 C259.910946,36.1315449 259.701842,35.5294118 257.6108,35.5294118 Z M285.213988,26 L290.662338,26 L290.662338,40.1743697 C290.662338,45.6638655 289.027833,46.6470588 283.307066,46.6470588 C277.640783,46.6470588 276.469388,45.3088235 276.469388,39.6008403 L276.469388,37.907563 L281.64532,37.907563 L281.64532,39.6008403 C281.64532,41.2941176 281.836012,41.894958 283.307066,41.894958 C284.996054,41.894958 285.213988,41.4579832 285.213988,40.1743697 L285.213988,26 Z M300.646859,41.0882353 C299.471111,41.0882353 298.54731,41.2867647 298.54731,42.6481092 C298.54731,44.2647059 299.919015,44.2647059 300.646859,44.2647059 C302.662425,44.2647059 303.278293,44.0094538 303.278293,42.4495798 C303.278293,41.2016807 302.214522,41.0882353 300.646859,41.0882353 Z M303.250627,47.2725929 L303.416626,45.0810059 L303.250627,45.0810059 C302.890961,47.1040092 300.732969,47.4411765 299.072975,47.4411765 C295.752986,47.4411765 293.816327,46.6263557 293.816327,42.8613217 C293.816327,39.3210659 295.64232,38.2252724 299.072975,38.2252724 C300.428637,38.2252724 302.503629,38.1971751 303.029294,39.8830112 L303.250627,39.8830112 L303.250627,37.5509379 C303.250627,36.1741718 303.167627,35.3031565 301.092634,35.3031565 C299.902972,35.3031565 299.155974,35.5841291 299.155974,36.9047008 L294.397324,36.9047008 C294.397324,32.324846 297.689646,32.3529433 301.092634,32.3529433 C305.96195,32.3529433 308.009276,32.9710832 308.009276,38.0566888 L308.009276,47.2725929 L303.250627,47.2725929 Z M323.779221,32.3529412 L320.226635,46.6470588 L312.79099,46.6470588 L308.797774,32.3529412 L313.75487,32.3529412 L316.371115,43.5159664 L316.508813,43.5159664 L318.877203,32.3529412 L323.779221,32.3529412 Z M332.186747,41.0882353 C331.011,41.0882353 330.087199,41.2867647 330.087199,42.6481092 C330.087199,44.2647059 331.458904,44.2647059 332.186747,44.2647059 C334.202314,44.2647059 334.818182,44.0094538 334.818182,42.4495798 C334.818182,41.2016807 333.75441,41.0882353 332.186747,41.0882353 Z M334.790515,47.2725929 L334.956515,45.0810059 L334.790515,45.0810059 C334.43085,47.1040092 332.272857,47.4411765 330.612863,47.4411765 C327.292875,47.4411765 325.356215,46.6263557 325.356215,42.8613217 C325.356215,39.3210659 327.182209,38.2252724 330.612863,38.2252724 C331.968525,38.2252724 334.043518,38.1971751 334.569183,39.8830112 L334.790515,39.8830112 L334.790515,37.5509379 C334.790515,36.1741718 334.707516,35.3031565 332.632523,35.3031565 C331.44286,35.3031565 330.695863,35.5841291 330.695863,36.9047008 L325.937213,36.9047008 C325.937213,32.324846 329.229535,32.3529433 332.632523,32.3529433 C337.501839,32.3529433 339.549165,32.9710832 339.549165,38.0566888 L339.549165,47.2725929 L334.790515,47.2725929 Z M364.685871,26 L370.300557,26 L370.300557,39.6554622 C370.300557,45.1176471 367.661654,46.6470588 361.485499,46.6470588 C353.06347,46.6470588 352.165121,44.5714286 352.165121,39.6554622 L352.165121,26 L357.779807,26 L357.779807,39.5462185 C357.779807,41.8676471 359.127331,41.894958 361.485499,41.894958 C363.871741,41.894958 364.685871,41.7037815 364.685871,39.3004202 L364.685871,26 Z M386.16868,36.7079911 L381.695415,36.7079911 C381.612577,36.089855 381.308837,35.7807869 380.949871,35.6122043 C380.590905,35.4717188 380.149102,35.4717188 379.762523,35.4717188 C377.277376,35.4717188 377.277376,35.7807869 377.277376,36.6517969 C377.277376,37.3823214 377.332602,37.8880691 379.762523,37.9442633 C384.677591,38.0566517 386.858998,38.3376226 386.858998,42.4678958 C386.858998,46.7948486 383.573082,47.4410818 379.762523,47.4410818 C376.00719,47.4410818 372.666048,47.5253731 372.666048,42.6645754 L377.41544,42.6645754 C377.41544,44.3223041 378.602788,44.3223041 379.762523,44.3223041 C381.916317,44.3223041 382.24767,44.1818186 382.24767,43.0298377 C382.24767,41.5687887 381.419288,41.5687887 379.762523,41.5687887 C373.742945,41.5687887 372.666048,40.192031 372.666048,37.1856417 C372.666048,32.4372325 375.731063,32.3529412 379.762523,32.3529412 C382.413347,32.3529412 386.16868,32.3810383 386.16868,36.0055637 L386.16868,36.7079911 Z M393.166976,37.9117647 L397.897959,37.9117647 C397.897959,35.672927 397.086134,35.5294118 395.462483,35.5294118 C393.75485,35.5294118 393.222964,35.9312544 393.166976,37.9117647 Z M397.953292,42.3555702 L402.628942,42.3555702 C402.628942,44.5752547 401.909612,45.8396319 400.664616,46.570161 C399.41962,47.2725928 397.64896,47.4411765 395.546301,47.4411765 C389.819321,47.4411765 388.435993,45.4181729 388.435993,39.9111075 C388.435993,34.2354584 389.708655,32.3529412 395.546301,32.3529412 C400.996615,32.3529412 402.628942,33.8982912 402.628942,39.9111075 L402.628942,40.7259284 L393.194642,40.7259284 C393.194642,43.3108774 393.581974,44.0695038 395.546301,44.0695038 C397.012629,44.0695038 397.953292,43.9009201 397.953292,42.3555702 Z M412.617177,38.6789631 L412.617177,38.0059821 C412.617177,37.0099701 412.671431,35.9062812 411.396453,35.9062812 C409.985839,35.9062812 409.660312,37.0099701 409.660312,38.1674975 L409.660312,46.6470588 L404.994434,46.6470588 L404.994434,32.5144566 L409.524676,32.5144566 L409.524676,34.5872383 L409.714567,34.5872383 C410.040093,33.779661 410.501255,33.2143569 411.098054,32.8644068 C411.694852,32.5144566 412.427286,32.3529412 413.295357,32.3529412 C416.55062,32.3529412 416.821892,34.9910269 416.821892,37.5752742 L416.821892,38.6789631 L412.617177,38.6789631 Z M431.901518,36.7079911 L427.428254,36.7079911 C427.345416,36.089855 427.041675,35.7807869 426.68271,35.6122043 C426.323744,35.4717188 425.88194,35.4717188 425.495362,35.4717188 C423.010215,35.4717188 423.010215,35.7807869 423.010215,36.6517969 C423.010215,37.3823214 423.06544,37.8880691 425.495362,37.9442633 C430.41043,38.0566517 432.591837,38.3376226 432.591837,42.4678958 C432.591837,46.7948486 429.30592,47.4410818 425.495362,47.4410818 C421.740029,47.4410818 418.398887,47.5253731 418.398887,42.6645754 L423.148279,42.6645754 C423.148279,44.3223041 424.335627,44.3223041 425.495362,44.3223041 C427.649156,44.3223041 427.980509,44.1818186 427.980509,43.0298377 C427.980509,41.5687887 427.152126,41.5687887 425.495362,41.5687887 C419.475784,41.5687887 418.398887,40.192031 418.398887,37.1856417 C418.398887,32.4372325 421.463901,32.3529412 425.495362,32.3529412 C428.146185,32.3529412 431.901518,32.3810383 431.901518,36.0055637 L431.901518,36.7079911 Z M463.343228,32.4759148 L457.759568,32.4759148 C457.649545,30.4166281 455.861673,30.4437239 454.21133,30.4437239 C450.250507,30.4437239 450.140484,31.6359426 450.085473,34.9145438 L450.085473,38.2202409 C450.085473,41.8239926 451.350736,42.2033349 454.21133,42.2033349 C457.016913,42.2033349 457.759568,41.5801297 457.759568,38.7621584 L453.963779,38.7621584 L453.963779,34.9958314 L463.343228,34.9958314 L463.343228,38.5453914 C463.343228,45.4006484 461.582862,46.6470588 454.21133,46.6470588 C447.719981,46.6470588 444.419295,45.5632237 444.419295,38.9789254 L444.419295,33.7223252 C444.419295,27.0025475 448.160072,26 454.21133,26 C459.547439,26 463.343228,26.0270959 463.343228,32.4759148 Z M473.331462,38.6789631 L473.331462,38.0059821 C473.331462,37.0099701 473.385717,35.9062812 472.110739,35.9062812 C470.700124,35.9062812 470.374598,37.0099701 470.374598,38.1674975 L470.374598,46.6470588 L465.70872,46.6470588 L465.70872,32.5144566 L470.238962,32.5144566 L470.238962,34.5872383 L470.428852,34.5872383 C470.754379,33.779661 471.215541,33.2143569 471.812339,32.8644068 C472.409138,32.5144566 473.141572,32.3529412 474.009642,32.3529412 C477.264906,32.3529412 477.536178,34.9910269 477.536178,37.5752742 L477.536178,38.6789631 L473.331462,38.6789631 Z M486.984628,32.3529412 C492.932149,32.3529412 494.09462,33.673513 494.09462,39.9111075 C494.09462,45.9801183 492.878081,47.4411765 486.984628,47.4411765 C481.172277,47.4411765 479.90167,45.8115347 479.90167,39.9111075 C479.90167,33.8701939 481.06414,32.3529412 486.984628,32.3529412 Z M487.06349,35.5294118 C484.894033,35.5294118 484.632653,36.1315449 484.632653,39.116031 C484.632653,42.1005171 484.894033,42.6764706 487.06349,42.6764706 C489.154532,42.6764706 489.363636,42.1005171 489.363636,39.116031 C489.363636,36.1315449 489.154532,35.5294118 487.06349,35.5294118 Z M510.653061,46.4855434 L505.950239,46.4855434 L506.119202,43.7666999 L505.893917,43.7666999 C505.218063,45.9471585 503.528426,46.6470588 501.472701,46.6470588 C498.543997,46.6470588 496.460111,45.4626122 496.460111,42.0169492 L496.460111,32.3529412 L501.303737,32.3529412 L501.303737,40.778664 C501.303737,42.0707876 501.44454,43.0937188 503.077856,43.0937188 C504.373244,43.0937188 505.809435,42.447657 505.809435,41.0478564 L505.809435,32.3529412 L510.653061,32.3529412 L510.653061,46.4855434 Z M513.80705,53 L513.80705,32.5163744 L518.456931,32.5163744 L518.348794,34.7772001 L518.565068,34.7772001 C519.105751,32.8432407 520.592632,32.3529412 522.620196,32.3529412 C526.053538,32.3529412 528,33.8238398 528,37.6100419 L528,40.8787056 C528,45.2369238 526.51312,46.9802111 522.620196,46.9802111 C520.917042,46.9802111 519.430162,46.6261059 518.673204,44.6649077 L518.456931,44.6649077 L518.456931,53 L513.80705,53 Z M520.785904,35.5294118 C518.877828,35.5294118 518.538033,36.210084 518.538033,39.116031 C518.538033,41.4198449 518.694862,42.6764706 520.785904,42.6764706 C522.641704,42.6764706 523.269017,42.2314156 523.269017,39.116031 C523.269017,36.4457014 523.164465,35.5294118 520.785904,35.5294118 Z" id="Greensboro-Java-User" fill="#FFFFFF"></path>
                </g>
                <g id="Group-4" transform="translate(69.153226, 48.291967) scale(-1, 1) rotate(-386.000000) translate(-69.153226, -48.291967) translate(36.153226, 10.791967)" fill-rule="nonzero">
                    <path d="M60.5877738,42.9853952 C61.6173117,38.6110468 60.6653686,34.2208246 57.976661,30.9398951 C55.9094649,28.4186311 52.9444074,26.7383775 49.6253672,26.2084196 C46.1256874,25.6491426 42.6367132,26.2104033 39.8011184,27.7890319 C39.0056316,28.2303692 38.2925858,28.7369592 37.6659606,29.2957934 C39.0666355,28.8388047 40.6813568,28.741588 42.4146057,29.0184703 C49.6384401,30.1722965 54.3001295,36.2771629 52.8061116,42.6278312 C52.0855421,45.6902942 49.8177396,48.417898 46.4213081,50.3073587 C42.1085185,52.7067156 36.3645519,53.5613918 30.6625954,52.6502776 C26.0554894,51.9144228 20.4361109,50.3665147 15.7594735,45.4884397 C15.7594735,45.4884397 29.4822299,66.1028757 49.4918205,55.8674994 C56.1748305,52.4489826 59.7008166,46.7548368 60.5877738,42.9853952 Z" id="Shape" fill="#FDB32E" transform="translate(38.376420, 42.357984) scale(-1, 1) rotate(50.000000) translate(-38.376420, -42.357984) "></path>
                    <path d="M33.6621908,50.2167273 C35.8581817,50.4921486 38.0037701,50.6385241 40.069513,50.380879 C43.0364589,50.0108333 45.8110321,48.9655769 48.0997128,47.6102667 C51.082641,45.8433437 52.8605432,43.1237164 53.3791965,40.4165311 C53.9253668,37.5621394 52.5302014,33.9879874 50.9430787,32.3323227 C50.0378154,31.3879645 48.2106111,30.2268628 47.1927427,29.9730797 C49.1645734,31.5468026 49.9320288,32.7142827 49.7051599,34.7071351 C49.4577624,36.8803135 48.5921455,38.2591531 47.8887158,39.0476005 C43.7827477,43.6498227 40.0558551,44.4156359 33.5623495,43.6011121 C29.8162783,43.13152 26.4189655,41.3962528 23.996676,38.7166009 C20.9199954,35.3132704 19.573672,30.1569734 20.4631109,25.4983424 C22.0816757,17.0207545 26.0864354,13.4111385 34.2391185,7.92911903 C34.2391185,7.92911903 3.38228885,17.2938537 17.3606245,41.4090441 C20.7747986,47.2991201 29.0514574,49.638521 33.6621908,50.2167273 Z" id="Shape" fill="#00AAE8" transform="translate(33.613339, 29.222007) scale(-1, 1) rotate(50.000000) translate(-33.613339, -29.222007) "></path>
                    <path d="M43.737672,38.0226065 C40.1897262,32.3999558 32.7181757,29.5798907 28.1602126,28.8466072 C22.8709965,27.9951664 17.562121,28.7826604 13.5951009,31.0059657 C10.5463616,32.7154853 8.51460459,35.1673601 7.87351478,37.9124156 C7.19724007,40.8068276 7.87591347,43.6919456 9.78478584,46.036948 C10.3184495,46.6949997 10.9310164,47.28468 11.6067592,47.8026682 C11.0539034,46.644329 10.9366464,45.3089742 11.2714186,43.8755983 C12.6666214,37.9015731 20.0489049,34.0464145 27.7275455,35.2819766 C31.4309674,35.8780736 34.7291767,37.7535452 37.0138684,40.5623253 C39.9154646,44.1287287 40.9484031,48.8789174 39.8472247,53.5943701 C38.9571296,57.4041677 35.7500861,62.5404687 29.8512654,66.4082416 C29.8512655,66.4082417 54.7412427,55.4603237 43.737672,38.0226065 Z" id="Shape" fill="#ADDB25" transform="translate(27.081852, 47.459726) scale(-1, 1) rotate(50.000000) translate(-27.081852, -47.459726) "></path>
                </g>
            </g>
        </g>
    </g>
</svg>