<?xml version="1.0" encoding="UTF-8"?>
<svg width="558px" height="75px" viewBox="0 0 558 75" version="1.1" xmlns="http://www.w3.org/2000/svg" xmlns:xlink="http://www.w3.org/1999/xlink">
    <!-- Generator: Sketch 49 (51002) - http://www.bohemiancoding.com/sketch -->
    <title>gso-jug-banner</title>
    <desc>Created with Sketch.</desc>
    <defs></defs>
    <g id="Page-1" stroke="none" stroke-width="1" fill="none" fill-rule="evenodd">
        <g id="GSO-JUG" transform="translate(-2031.000000, -1307.000000)">
            <g id="gso-jug-banner" transform="translate(2030.000000, 1290.000000)">
                <rect id="Rectangle-40" fill="#343A40" x="1" y="17" width="558" height="75"></rect>
                <g id="Group-4" transform="translate(56.017037, 53.629410) rotate(-285.000000) translate(-56.017037, -53.629410) translate(13.517037, 7.629410)" fill-rule="nonzero">
                    <path d="M78.6278248,50.1347313 C79.9541893,44.5093578 78.727791,38.8635708 75.2639007,34.6443244 C72.6007103,31.4020011 68.7807955,29.2412098 64.504841,28.5596886 C59.9961668,27.8404633 55.5012846,28.5622396 51.8481581,30.5923421 C50.823324,31.159898 49.9046997,31.8113683 49.0974118,32.5300241 C50.901916,31.9423406 52.9821784,31.8173208 55.2151412,32.173389 C64.521683,33.6571994 70.5273866,41.5080037 68.6026275,49.6749072 C67.6743103,53.6132076 64.7526764,57.120882 60.3770181,59.5507118 C54.8208058,62.6362637 47.4207932,63.7353697 40.0749026,62.5636849 C34.1395196,61.617382 26.1380077,58.2066633 20.1130465,51.9335019 C20.1130465,51.9335019 38.5542254,79.8636074 64.3327915,66.7010038 C72.9425836,62.3048212 77.4851485,54.9822 78.6278248,50.1347313 Z" id="Shape" fill="#FDB32E" transform="translate(49.631700, 49.257587) scale(-1, 1) rotate(50.000000) translate(-49.631700, -49.257587) "></path>
                    <path d="M45.6687386,58.6291681 C48.4978568,58.9833575 51.2620409,59.1715951 53.9233592,58.8402657 C57.7457068,58.3643901 61.3202187,57.0201996 64.2687502,55.2772827 C68.1116879,53.0050354 70.4021781,49.5076185 71.0703645,46.0262021 C71.7740015,42.3554796 70.7266071,38.7491607 68.1201334,35.8719095 C67.3899191,35.0647738 66.5627365,34.3460204 65.6579474,33.7206644 C66.4413069,35.157895 66.6724745,36.83434 66.323285,38.6521369 C64.8697176,46.2294514 55.5467287,51.3744824 45.540112,50.1215453 C40.7140092,49.5176539 36.3372153,47.2861157 33.2165543,43.840107 C29.2528343,39.4634539 27.6367715,33.5229928 28.7841999,27.542664 C29.7114609,22.7096104 33.5578491,16.1159135 40.9610943,11.0138143 C40.9610943,11.0138143 8.84773746,26.1435175 24.6672593,47.3025651 C29.8585003,54.2459935 39.7286823,57.8855999 45.6687386,58.6291681 Z" id="Shape" fill="#00AAE8" transform="translate(45.785296, 35.013212) scale(-1, 1) rotate(50.000000) translate(-45.785296, -35.013212) "></path>
                    <path d="M56.3477029,44.0188572 C51.7768471,36.788178 42.1511699,33.1615991 36.2790982,32.218603 C29.4649453,31.1236577 22.6254653,32.136368 17.5147116,34.9955191 C13.5869886,37.1939462 10.9694547,40.3470355 10.1435319,43.8771527 C9.2722801,47.599341 10.1466222,51.3095774 12.6058425,54.3252298 C13.293367,55.1714785 14.0825434,55.9298021 14.95311,56.5959304 C14.24086,55.1063165 14.0897966,53.3890618 14.5210872,51.5457532 C16.3185416,43.8632094 25.829215,38.9055094 35.7216885,40.4944314 C40.4928459,41.2610069 44.7419637,43.6728468 47.6853561,47.2849133 C51.423513,51.8712766 52.7542585,57.9799774 51.3355988,64.044008 C50.1888799,68.9433741 46.057212,75.5486119 38.4576993,80.5225338 C38.4576994,80.5225339 70.5237189,66.4436078 56.3477029,44.0188572 Z" id="Shape" fill="#ADDB25" transform="translate(34.889835, 56.154910) scale(-1, 1) rotate(50.000000) translate(-34.889835, -56.154910) "></path>
                </g>
                <path d="M122.923933,49.4759148 L117.340273,49.4759148 C117.23025,47.4166281 115.442378,47.4437239 113.792035,47.4437239 C109.831212,47.4437239 109.721189,48.6359426 109.666178,51.9145438 L109.666178,55.2202409 C109.666178,58.8239926 110.931441,59.2033349 113.792035,59.2033349 C116.597618,59.2033349 117.340273,58.5801297 117.340273,55.7621584 L113.544484,55.7621584 L113.544484,51.9958314 L122.923933,51.9958314 L122.923933,55.5453914 C122.923933,62.4006484 121.163567,63.6470588 113.792035,63.6470588 C107.300686,63.6470588 104,62.5632237 104,55.9789254 L104,50.7223252 C104,44.0025475 107.740777,43 113.792035,43 C119.128144,43 122.923933,43.0270959 122.923933,49.4759148 Z M132.912167,55.6789631 L132.912167,55.0059821 C132.912167,54.0099701 132.966422,52.9062812 131.691444,52.9062812 C130.280829,52.9062812 129.955303,54.0099701 129.955303,55.1674975 L129.955303,63.6470588 L125.289425,63.6470588 L125.289425,49.5144566 L129.819667,49.5144566 L129.819667,51.5872383 L130.009557,51.5872383 C130.335084,50.779661 130.796246,50.2143569 131.393044,49.8644068 C131.989843,49.5144566 132.722277,49.3529412 133.590347,49.3529412 C136.845611,49.3529412 137.116883,51.9910269 137.116883,54.5752742 L137.116883,55.6789631 L132.912167,55.6789631 Z M144.213358,54.9117647 L148.944341,54.9117647 C148.944341,52.672927 148.132516,52.5294118 146.508865,52.5294118 C144.801232,52.5294118 144.269346,52.9312544 144.213358,54.9117647 Z M148.999675,59.3555702 L153.675325,59.3555702 C153.675325,61.5752547 152.955994,62.8396319 151.710998,63.570161 C150.466003,64.2725928 148.695342,64.4411765 146.592683,64.4411765 C140.865703,64.4411765 139.482375,62.4181729 139.482375,56.9111075 C139.482375,51.2354584 140.755037,49.3529412 146.592683,49.3529412 C152.042997,49.3529412 153.675325,50.8982912 153.675325,56.9111075 L153.675325,57.7259284 L144.241025,57.7259284 C144.241025,60.3108774 144.628357,61.0695038 146.592683,61.0695038 C148.059011,61.0695038 148.999675,60.9009201 148.999675,59.3555702 Z M159.983302,54.9117647 L164.714286,54.9117647 C164.714286,52.672927 163.90246,52.5294118 162.278809,52.5294118 C160.571176,52.5294118 160.03929,52.9312544 159.983302,54.9117647 Z M164.769619,59.3555702 L169.445269,59.3555702 C169.445269,61.5752547 168.725938,62.8396319 167.480943,63.570161 C166.235947,64.2725928 164.465287,64.4411765 162.362627,64.4411765 C156.635648,64.4411765 155.252319,62.4181729 155.252319,56.9111075 C155.252319,51.2354584 156.524981,49.3529412 162.362627,49.3529412 C167.812941,49.3529412 169.445269,50.8982912 169.445269,56.9111075 L169.445269,57.7259284 L160.010969,57.7259284 C160.010969,60.3108774 160.398301,61.0695038 162.362627,61.0695038 C163.828956,61.0695038 164.769619,60.9009201 164.769619,59.3555702 Z M171.810761,49.5144566 L176.644795,49.5144566 L176.644795,52.1525424 L176.841529,52.1525424 C177.206892,51.0219342 177.740884,50.3220339 178.47161,49.9182453 C179.202337,49.4875374 180.129797,49.3529412 181.253991,49.3529412 C184.514153,49.3529412 186.003711,50.8334995 186.003711,53.8753739 L186.003711,63.6470588 L181.169676,63.6470588 L181.169676,54.9521436 C181.141571,53.5792622 180.748103,52.9062812 179.174232,52.9062812 C177.010158,52.9062812 176.644795,54.1445663 176.644795,55.8673978 L176.644795,63.6470588 L171.810761,63.6470588 L171.810761,49.5144566 Z M201.871834,53.7079911 L197.398569,53.7079911 C197.315731,53.089855 197.011991,52.7807869 196.653025,52.6122043 C196.294059,52.4717188 195.852256,52.4717188 195.465677,52.4717188 C192.98053,52.4717188 192.98053,52.7807869 192.98053,53.6517969 C192.98053,54.3823214 193.035756,54.8880691 195.465677,54.9442633 C200.380745,55.0566517 202.562152,55.3376226 202.562152,59.4678958 C202.562152,63.7948486 199.276236,64.4410818 195.465677,64.4410818 C191.710344,64.4410818 188.369202,64.5253731 188.369202,59.6645754 L193.118594,59.6645754 C193.118594,61.3223041 194.305942,61.3223041 195.465677,61.3223041 C197.619471,61.3223041 197.950824,61.1818186 197.950824,60.0298377 C197.950824,58.5687887 197.122442,58.5687887 195.465677,58.5687887 C189.446099,58.5687887 188.369202,57.192031 188.369202,54.1856417 C188.369202,49.4372325 191.434217,49.3529412 195.465677,49.3529412 C198.116501,49.3529412 201.871834,49.3810383 201.871834,53.0055637 L201.871834,53.7079911 Z M204.927644,43 L209.577525,43 L209.577525,51.1932773 L209.793798,51.1932773 C210.550755,49.3361345 212.037636,48.9810924 213.74079,48.9810924 C217.633713,48.9810924 219.120594,50.7289916 219.120594,55.0987395 L219.120594,58.3760504 C219.120594,62.1722689 217.174132,63.6470588 213.74079,63.6470588 C211.713226,63.6470588 210.226345,63.1554622 209.685661,60.9978992 L209.469388,60.9978992 L209.577525,63.4831933 L204.927644,63.4831933 L204.927644,43 Z M212.14174,59.6764706 C214.049816,59.6764706 214.38961,58.9957983 214.38961,56.0898513 C214.38961,53.7860375 214.232782,52.5294118 212.14174,52.5294118 C210.28594,52.5294118 209.658627,52.9744667 209.658627,56.0898513 C209.658627,58.760181 209.763179,59.6764706 212.14174,59.6764706 Z M227.780546,49.3529412 C233.728068,49.3529412 234.890538,50.673513 234.890538,56.9111075 C234.890538,62.9801183 233.673999,64.4411765 227.780546,64.4411765 C221.968195,64.4411765 220.697588,62.8115347 220.697588,56.9111075 C220.697588,50.8701939 221.860058,49.3529412 227.780546,49.3529412 Z M227.859408,52.5294118 C225.689952,52.5294118 225.428571,53.1315449 225.428571,56.116031 C225.428571,59.1005171 225.689952,59.6764706 227.859408,59.6764706 C229.95045,59.6764706 230.159555,59.1005171 230.159555,56.116031 C230.159555,53.1315449 229.95045,52.5294118 227.859408,52.5294118 Z M245.667269,55.6789631 L245.667269,55.0059821 C245.667269,54.0099701 245.721524,52.9062812 244.446546,52.9062812 C243.035931,52.9062812 242.710405,54.0099701 242.710405,55.1674975 L242.710405,63.6470588 L238.044527,63.6470588 L238.044527,49.5144566 L242.574769,49.5144566 L242.574769,51.5872383 L242.764659,51.5872383 C243.090186,50.779661 243.551348,50.2143569 244.148146,49.8644068 C244.744945,49.5144566 245.477379,49.3529412 246.345449,49.3529412 C249.600713,49.3529412 249.871985,51.9910269 249.871985,54.5752742 L249.871985,55.6789631 L245.667269,55.6789631 Z M258.531937,49.3529412 C264.479459,49.3529412 265.641929,50.673513 265.641929,56.9111075 C265.641929,62.9801183 264.425391,64.4411765 258.531937,64.4411765 C252.719587,64.4411765 251.44898,62.8115347 251.44898,56.9111075 C251.44898,50.8701939 252.61145,49.3529412 258.531937,49.3529412 Z M258.6108,52.5294118 C256.441343,52.5294118 256.179963,53.1315449 256.179963,56.116031 C256.179963,59.1005171 256.441343,59.6764706 258.6108,59.6764706 C260.701842,59.6764706 260.910946,59.1005171 260.910946,56.116031 C260.910946,53.1315449 260.701842,52.5294118 258.6108,52.5294118 Z M286.213988,43 L291.662338,43 L291.662338,57.1743697 C291.662338,62.6638655 290.027833,63.6470588 284.307066,63.6470588 C278.640783,63.6470588 277.469388,62.3088235 277.469388,56.6008403 L277.469388,54.907563 L282.64532,54.907563 L282.64532,56.6008403 C282.64532,58.2941176 282.836012,58.894958 284.307066,58.894958 C285.996054,58.894958 286.213988,58.4579832 286.213988,57.1743697 L286.213988,43 Z M301.646859,58.0882353 C300.471111,58.0882353 299.54731,58.2867647 299.54731,59.6481092 C299.54731,61.2647059 300.919015,61.2647059 301.646859,61.2647059 C303.662425,61.2647059 304.278293,61.0094538 304.278293,59.4495798 C304.278293,58.2016807 303.214522,58.0882353 301.646859,58.0882353 Z M304.250627,64.2725929 L304.416626,62.0810059 L304.250627,62.0810059 C303.890961,64.1040092 301.732969,64.4411765 300.072975,64.4411765 C296.752986,64.4411765 294.816327,63.6263557 294.816327,59.8613217 C294.816327,56.3210659 296.64232,55.2252724 300.072975,55.2252724 C301.428637,55.2252724 303.503629,55.1971751 304.029294,56.8830112 L304.250627,56.8830112 L304.250627,54.5509379 C304.250627,53.1741718 304.167627,52.3031565 302.092634,52.3031565 C300.902972,52.3031565 300.155974,52.5841291 300.155974,53.9047008 L295.397324,53.9047008 C295.397324,49.324846 298.689646,49.3529433 302.092634,49.3529433 C306.96195,49.3529433 309.009276,49.9710832 309.009276,55.0566888 L309.009276,64.2725929 L304.250627,64.2725929 Z M324.779221,49.3529412 L321.226635,63.6470588 L313.79099,63.6470588 L309.797774,49.3529412 L314.75487,49.3529412 L317.371115,60.5159664 L317.508813,60.5159664 L319.877203,49.3529412 L324.779221,49.3529412 Z M333.186747,58.0882353 C332.011,58.0882353 331.087199,58.2867647 331.087199,59.6481092 C331.087199,61.2647059 332.458904,61.2647059 333.186747,61.2647059 C335.202314,61.2647059 335.818182,61.0094538 335.818182,59.4495798 C335.818182,58.2016807 334.75441,58.0882353 333.186747,58.0882353 Z M335.790515,64.2725929 L335.956515,62.0810059 L335.790515,62.0810059 C335.43085,64.1040092 333.272857,64.4411765 331.612863,64.4411765 C328.292875,64.4411765 326.356215,63.6263557 326.356215,59.8613217 C326.356215,56.3210659 328.182209,55.2252724 331.612863,55.2252724 C332.968525,55.2252724 335.043518,55.1971751 335.569183,56.8830112 L335.790515,56.8830112 L335.790515,54.5509379 C335.790515,53.1741718 335.707516,52.3031565 333.632523,52.3031565 C332.44286,52.3031565 331.695863,52.5841291 331.695863,53.9047008 L326.937213,53.9047008 C326.937213,49.324846 330.229535,49.3529433 333.632523,49.3529433 C338.501839,49.3529433 340.549165,49.9710832 340.549165,55.0566888 L340.549165,64.2725929 L335.790515,64.2725929 Z M365.685871,43 L371.300557,43 L371.300557,56.6554622 C371.300557,62.1176471 368.661654,63.6470588 362.485499,63.6470588 C354.06347,63.6470588 353.165121,61.5714286 353.165121,56.6554622 L353.165121,43 L358.779807,43 L358.779807,56.5462185 C358.779807,58.8676471 360.127331,58.894958 362.485499,58.894958 C364.871741,58.894958 365.685871,58.7037815 365.685871,56.3004202 L365.685871,43 Z M387.16868,53.7079911 L382.695415,53.7079911 C382.612577,53.089855 382.308837,52.7807869 381.949871,52.6122043 C381.590905,52.4717188 381.149102,52.4717188 380.762523,52.4717188 C378.277376,52.4717188 378.277376,52.7807869 378.277376,53.6517969 C378.277376,54.3823214 378.332602,54.8880691 380.762523,54.9442633 C385.677591,55.0566517 387.858998,55.3376226 387.858998,59.4678958 C387.858998,63.7948486 384.573082,64.4410818 380.762523,64.4410818 C377.00719,64.4410818 373.666048,64.5253731 373.666048,59.6645754 L378.41544,59.6645754 C378.41544,61.3223041 379.602788,61.3223041 380.762523,61.3223041 C382.916317,61.3223041 383.24767,61.1818186 383.24767,60.0298377 C383.24767,58.5687887 382.419288,58.5687887 380.762523,58.5687887 C374.742945,58.5687887 373.666048,57.192031 373.666048,54.1856417 C373.666048,49.4372325 376.731063,49.3529412 380.762523,49.3529412 C383.413347,49.3529412 387.16868,49.3810383 387.16868,53.0055637 L387.16868,53.7079911 Z M394.166976,54.9117647 L398.897959,54.9117647 C398.897959,52.672927 398.086134,52.5294118 396.462483,52.5294118 C394.75485,52.5294118 394.222964,52.9312544 394.166976,54.9117647 Z M398.953292,59.3555702 L403.628942,59.3555702 C403.628942,61.5752547 402.909612,62.8396319 401.664616,63.570161 C400.41962,64.2725928 398.64896,64.4411765 396.546301,64.4411765 C390.819321,64.4411765 389.435993,62.4181729 389.435993,56.9111075 C389.435993,51.2354584 390.708655,49.3529412 396.546301,49.3529412 C401.996615,49.3529412 403.628942,50.8982912 403.628942,56.9111075 L403.628942,57.7259284 L394.194642,57.7259284 C394.194642,60.3108774 394.581974,61.0695038 396.546301,61.0695038 C398.012629,61.0695038 398.953292,60.9009201 398.953292,59.3555702 Z M413.617177,55.6789631 L413.617177,55.0059821 C413.617177,54.0099701 413.671431,52.9062812 412.396453,52.9062812 C410.985839,52.9062812 410.660312,54.0099701 410.660312,55.1674975 L410.660312,63.6470588 L405.994434,63.6470588 L405.994434,49.5144566 L410.524676,49.5144566 L410.524676,51.5872383 L410.714567,51.5872383 C411.040093,50.779661 411.501255,50.2143569 412.098054,49.8644068 C412.694852,49.5144566 413.427286,49.3529412 414.295357,49.3529412 C417.55062,49.3529412 417.821892,51.9910269 417.821892,54.5752742 L417.821892,55.6789631 L413.617177,55.6789631 Z M432.901518,53.7079911 L428.428254,53.7079911 C428.345416,53.089855 428.041675,52.7807869 427.68271,52.6122043 C427.323744,52.4717188 426.88194,52.4717188 426.495362,52.4717188 C424.010215,52.4717188 424.010215,52.7807869 424.010215,53.6517969 C424.010215,54.3823214 424.06544,54.8880691 426.495362,54.9442633 C431.41043,55.0566517 433.591837,55.3376226 433.591837,59.4678958 C433.591837,63.7948486 430.30592,64.4410818 426.495362,64.4410818 C422.740029,64.4410818 419.398887,64.5253731 419.398887,59.6645754 L424.148279,59.6645754 C424.148279,61.3223041 425.335627,61.3223041 426.495362,61.3223041 C428.649156,61.3223041 428.980509,61.1818186 428.980509,60.0298377 C428.980509,58.5687887 428.152126,58.5687887 426.495362,58.5687887 C420.475784,58.5687887 419.398887,57.192031 419.398887,54.1856417 C419.398887,49.4372325 422.463901,49.3529412 426.495362,49.3529412 C429.146185,49.3529412 432.901518,49.3810383 432.901518,53.0055637 L432.901518,53.7079911 Z M464.343228,49.4759148 L458.759568,49.4759148 C458.649545,47.4166281 456.861673,47.4437239 455.21133,47.4437239 C451.250507,47.4437239 451.140484,48.6359426 451.085473,51.9145438 L451.085473,55.2202409 C451.085473,58.8239926 452.350736,59.2033349 455.21133,59.2033349 C458.016913,59.2033349 458.759568,58.5801297 458.759568,55.7621584 L454.963779,55.7621584 L454.963779,51.9958314 L464.343228,51.9958314 L464.343228,55.5453914 C464.343228,62.4006484 462.582862,63.6470588 455.21133,63.6470588 C448.719981,63.6470588 445.419295,62.5632237 445.419295,55.9789254 L445.419295,50.7223252 C445.419295,44.0025475 449.160072,43 455.21133,43 C460.547439,43 464.343228,43.0270959 464.343228,49.4759148 Z M474.331462,55.6789631 L474.331462,55.0059821 C474.331462,54.0099701 474.385717,52.9062812 473.110739,52.9062812 C471.700124,52.9062812 471.374598,54.0099701 471.374598,55.1674975 L471.374598,63.6470588 L466.70872,63.6470588 L466.70872,49.5144566 L471.238962,49.5144566 L471.238962,51.5872383 L471.428852,51.5872383 C471.754379,50.779661 472.215541,50.2143569 472.812339,49.8644068 C473.409138,49.5144566 474.141572,49.3529412 475.009642,49.3529412 C478.264906,49.3529412 478.536178,51.9910269 478.536178,54.5752742 L478.536178,55.6789631 L474.331462,55.6789631 Z M487.984628,49.3529412 C493.932149,49.3529412 495.09462,50.673513 495.09462,56.9111075 C495.09462,62.9801183 493.878081,64.4411765 487.984628,64.4411765 C482.172277,64.4411765 480.90167,62.8115347 480.90167,56.9111075 C480.90167,50.8701939 482.06414,49.3529412 487.984628,49.3529412 Z M488.06349,52.5294118 C485.894033,52.5294118 485.632653,53.1315449 485.632653,56.116031 C485.632653,59.1005171 485.894033,59.6764706 488.06349,59.6764706 C490.154532,59.6764706 490.363636,59.1005171 490.363636,56.116031 C490.363636,53.1315449 490.154532,52.5294118 488.06349,52.5294118 Z M511.653061,63.4855434 L506.950239,63.4855434 L507.119202,60.7666999 L506.893917,60.7666999 C506.218063,62.9471585 504.528426,63.6470588 502.472701,63.6470588 C499.543997,63.6470588 497.460111,62.4626122 497.460111,59.0169492 L497.460111,49.3529412 L502.303737,49.3529412 L502.303737,57.778664 C502.303737,59.0707876 502.44454,60.0937188 504.077856,60.0937188 C505.373244,60.0937188 506.809435,59.447657 506.809435,58.0478564 L506.809435,49.3529412 L511.653061,49.3529412 L511.653061,63.4855434 Z M514.80705,70 L514.80705,49.5163744 L519.456931,49.5163744 L519.348794,51.7772001 L519.565068,51.7772001 C520.105751,49.8432407 521.592632,49.3529412 523.620196,49.3529412 C527.053538,49.3529412 529,50.8238398 529,54.6100419 L529,57.8787056 C529,62.2369238 527.51312,63.9802111 523.620196,63.9802111 C521.917042,63.9802111 520.430162,63.6261059 519.673204,61.6649077 L519.456931,61.6649077 L519.456931,70 L514.80705,70 Z M521.785904,52.5294118 C519.877828,52.5294118 519.538033,53.210084 519.538033,56.116031 C519.538033,58.4198449 519.694862,59.6764706 521.785904,59.6764706 C523.641704,59.6764706 524.269017,59.2314156 524.269017,56.116031 C524.269017,53.4457014 524.164465,52.5294118 521.785904,52.5294118 Z" id="Greensboro-Java-User" fill="#FFFFFF"></path>
            </g>
        </g>
    </g>
</svg>