<?xml version="1.0" encoding="UTF-8"?>
<svg width="188px" height="230px" viewBox="0 0 188 230" version="1.1" xmlns="http://www.w3.org/2000/svg" xmlns:xlink="http://www.w3.org/1999/xlink">
    <!-- Generator: Sketch 49 (51002) - http://www.bohemiancoding.com/sketch -->
    <title>gso-jug-logo</title>
    <desc>Created with Sketch.</desc>
    <defs></defs>
    <g id="Page-1" stroke="none" stroke-width="1" fill="none" fill-rule="evenodd">
        <g id="GSO-JUG" transform="translate(-3223.000000, -946.000000)" fill-rule="nonzero">
            <g id="gso-jug-logo" transform="translate(3317.165805, 1054.776794) scale(-1, 1) rotate(-386.000000) translate(-3317.165805, -1054.776794) translate(3188.165805, 908.276794)">
                <path d="M238.419971,168.152554 C242.471323,150.938982 238.725316,133.662944 228.144937,120.752103 C220.010279,110.830635 208.342431,104.21864 195.28162,102.133194 C181.509971,99.9323737 167.780449,102.141 156.622053,108.353088 C153.491719,110.089802 150.685801,112.083293 148.219957,114.282371 C153.731777,112.484067 160.085894,112.101508 166.906431,113.191072 C195.333063,117.731513 213.677356,141.754876 207.798221,166.745498 C204.962695,178.796648 196.038628,189.530087 182.673273,196.965336 C165.701942,206.407086 143.098762,209.770336 120.660896,206.184996 C102.531396,203.289321 80.4184849,197.198122 62.0153701,178.002327 C62.0153701,178.002327 116.01602,259.122541 194.756098,218.84514 C221.054523,205.392876 234.929691,182.985747 238.419971,168.152554 Z" id="Shape" fill="#FDB32E" transform="translate(151.015698, 165.683619) scale(-1, 1) rotate(50.000000) translate(-151.015698, -165.683619) "></path>
                <path d="M132.464655,196.608691 C141.106136,197.692506 149.549277,198.268511 157.678217,197.254647 C169.353495,195.798474 180.271765,191.685268 189.277992,186.351964 C201.016163,179.398916 208.012416,168.696864 210.053377,158.043774 C212.202621,146.811408 206.712482,132.746703 200.466968,126.231469 C196.904652,122.515309 189.714389,117.946238 185.708958,116.947572 C193.468342,123.140355 196.488369,127.734526 195.595613,135.576633 C194.622075,144.128344 191.215772,149.554239 188.447694,152.656872 C172.290229,170.767154 157.624471,173.780718 132.071768,170.575472 C117.33054,168.727572 103.961717,161.899093 94.4297248,151.35435 C82.3226268,137.961846 77.0246868,117.671215 80.5247328,99.3389573 C86.8939746,65.9786584 102.653172,51.7743973 134.734933,30.2020101 C134.734933,30.2020101 13.3097019,67.0533355 68.3160863,161.949428 C81.7512605,185.127566 114.32088,194.333382 132.464655,196.608691 Z" id="Shape" fill="#00AAE8" transform="translate(132.272416, 113.992014) scale(-1, 1) rotate(50.000000) translate(-132.272416, -113.992014) "></path>
                <path d="M172.112851,148.6234 C158.15127,126.497613 128.749845,115.400327 110.813728,112.514771 C90.0000441,109.164252 69.1089988,112.263133 53.4983111,121.012099 C41.5011656,127.739258 33.5059642,137.387672 30.9832009,148.189786 C28.3219808,159.579636 30.99264,170.932912 38.5042759,180.160771 C40.6043047,182.750281 43.0148271,185.070742 45.6739539,187.109086 C43.4984016,182.550886 43.0369818,177.296109 44.3543495,171.655607 C49.8446357,148.14712 78.8947838,132.97662 109.111132,137.838701 C123.68453,140.184413 136.663369,147.564613 145.653898,158.617491 C157.072018,172.651705 161.136752,191.344253 156.803486,209.90011 C153.300858,224.892109 140.680767,245.104054 117.468218,260.324192 C117.468219,260.324192 215.413188,217.242855 172.112851,148.6234 Z" id="Shape" fill="#ADDB25" transform="translate(106.570252, 185.759568) scale(-1, 1) rotate(50.000000) translate(-106.570252, -185.759568) "></path>
            </g>
        </g>
    </g>
</svg>