<?xml version="1.0" encoding="UTF-8"?>
<svg width="992px" height="982px" viewBox="0 0 992 982" version="1.1" xmlns="http://www.w3.org/2000/svg" xmlns:xlink="http://www.w3.org/1999/xlink">
    <!-- Generator: Sketch 49 (51002) - http://www.bohemiancoding.com/sketch -->
    <title>meetup-logo</title>
    <desc>Created with Sketch.</desc>
    <defs></defs>
    <g id="Page-1" stroke="none" stroke-width="1" fill="none" fill-rule="evenodd">
        <g id="GSO-JUG" transform="translate(-415.000000, -4126.000000)" fill="#FFFFFF" fill-rule="nonzero">
            <g id="meetup-logo" transform="translate(292.000000, 3866.000000)">
                <path d="M305.164784,1060.49974 C307.370356,1071.933 300.553133,1082.76451 289.124259,1085.17151 C278.296905,1087.37793 267.269045,1080.55809 265.063473,1069.12483 C262.857901,1058.29333 269.675123,1046.86007 280.502477,1044.45307 C291.329831,1042.04607 302.758705,1049.06649 305.164784,1060.49974 Z M592.089664,1203.71635 C579.457751,1212.94319 576.049139,1230.59453 584.670921,1243.83304 C593.894223,1257.07155 611.538799,1260.48147 624.772232,1251.25463 C637.404145,1242.02779 640.812756,1224.37644 631.589455,1211.13793 C623.16818,1198.10001 605.323096,1194.48951 592.089664,1203.71635 Z M419.654026,276.418942 C432.285939,273.610773 440.306202,260.974014 437.49911,248.337256 C435.293538,235.098746 422.661625,227.075407 410.029712,230.084159 C397.397799,232.892328 389.377537,245.529087 391.783615,258.165846 C394.590707,271.404355 407.022114,279.427694 419.654026,276.418942 Z M175.637549,683.402812 C155.586894,669.562553 128.117496,674.777723 114.282543,695.437821 C100.447591,715.496168 105.660762,743.577855 125.711417,757.418115 C145.762073,771.659541 173.231471,766.644954 187.066423,745.984856 C200.901375,725.124175 195.688205,697.644239 175.637549,683.402812 Z M721.015378,340.605654 C742.269073,327.968895 748.484776,300.488959 736.454383,279.828861 C723.82247,258.567013 696.954592,251.747175 676.302417,264.383934 C655.650242,277.020692 648.833019,304.500628 661.464932,325.762477 C673.495325,346.422575 700.363203,353.242413 721.015378,340.605654 Z M337.847352,456.944069 C353.286357,446.112562 356.694968,424.850713 346.469134,409.405786 C336.2433,393.960858 314.989605,390.550939 300.15212,400.780696 C284.713115,411.612204 281.304504,432.874052 291.530338,448.31898 C301.756172,463.964491 322.809361,467.37441 337.847352,456.944069 Z M1084.33326,769.85429 C1069.49577,773.264209 1059.67095,788.107386 1063.07956,803.752897 C1065.88665,818.596074 1080.92464,828.424665 1095.76213,825.014746 C1110.59961,822.206577 1120.42444,807.162816 1117.01582,791.717889 C1114.00823,776.874712 1099.17074,767.046121 1084.33326,769.85429 Z M1163.93436,655.922876 C1161.72879,644.489618 1150.70093,637.66978 1139.87357,639.876198 C1128.4447,642.082617 1121.62747,653.716458 1123.83305,665.149716 C1126.03862,675.981224 1137.06648,683.402812 1148.49535,681.196394 C1159.32271,678.187642 1166.74145,667.356134 1163.93436,655.922876 Z M1002.92759,508.092855 C985.684031,520.127864 981.6739,543.59613 993.102773,560.846309 C1004.53165,578.096488 1027.99091,582.108158 1045.23448,570.6749 C1061.87652,558.639891 1065.88665,535.171624 1054.45778,517.921446 C1043.02891,500.470683 1019.56964,496.057847 1002.92759,508.092855 Z M990.295682,787.706219 C1043.02891,874.157697 1020.57217,988.289694 937.562458,1046.65949 C902.674317,1071.33125 863.174526,1082.16276 823.474228,1080.95926 C799.413441,1175.43408 684.322679,1210.53618 612.741839,1146.34947 C610.536267,1148.15472 607.528668,1149.75939 605.323096,1152.16639 C526.925033,1206.52451 420.255546,1187.06792 365.91827,1107.43628 C346.469134,1078.75284 336.644313,1046.05773 335.64178,1013.36263 C204.510493,991.49903 155.185881,824.814162 253.233586,733.147514 C196.490231,639.073864 254.436625,517.720862 360.304086,502.677102 C410.631232,369.890841 576.049139,306.90763 688.33281,393.960858 C823.474228,349.230743 961.623244,452.9324 950.79589,596.750751 C1033.20408,622.024269 1056.66335,730.941096 990.295682,787.706219 Z M849.941093,936.739741 C843.72539,895.419545 767.933912,927.512901 763.522768,882.381619 C757.307065,818.194907 851.144132,679.591726 843.72539,625.634772 C836.908167,577.494738 804.827118,567.26498 776.756201,566.66323 C749.888322,566.06148 742.870593,570.6749 733.847798,575.89007 C728.033108,579.299989 720.614365,585.71866 710.388531,575.288319 C697.756618,563.253311 688.132303,551.820053 671.490259,549.413051 C646.827953,545.401382 636.000599,553.424721 618.155516,568.869648 C611.338293,574.686569 594.094729,594.744916 578.054205,587.122744 C571.236982,583.712825 547.176195,571.677817 529.932632,564.256228 C497.250063,550.014802 449.73001,573.483068 432.486446,604.372923 C406.6211,650.306539 356.293955,831.232833 348.875213,855.30285 C331.631649,908.658054 370.730427,952.786419 422.862131,949.777667 C445.118359,948.574166 459.554831,940.550827 473.790796,914.876142 C481.811058,900.032965 557.40203,698.84774 563.21672,689.01915 C567.226851,682.199311 581.061803,672.972472 592.490677,678.789392 C603.91955,685.00748 606.325629,697.644239 604.52107,709.077497 C602.315498,728.534094 548.379235,851.291181 546.574676,864.930857 C539.757453,910.864473 600.510939,918.286061 623.970206,872.954196 C631.388948,858.712769 715.601701,687.213898 723.020444,675.78064 C731.642226,663.143881 737.857929,659.132212 746.479711,659.733962 C752.695414,659.733962 763.121755,661.539214 760.715676,681.597561 C757.908584,700.452408 690.337876,826.619413 682.718626,857.509268 C673.495325,898.829464 695.952059,940.550827 732.644759,959.004507 C755.502506,970.437765 857.961355,990.496112 849.941093,936.739741 Z M861.369967,1121.87829 C840.717792,1136.72147 835.504621,1166.00665 849.941093,1187.2685 C864.177059,1208.53035 892.849496,1213.54494 914.103191,1199.30351 C935.356885,1184.46033 940.369549,1155.17514 926.133584,1133.9133 C911.296099,1112.65145 882.623662,1106.83453 861.369967,1121.87829 Z" id="Shape" transform="translate(635.531250, 742.953125) rotate(-18.000000) translate(-635.531250, -742.953125) "></path>
            </g>
        </g>
    </g>
</svg>